<svg width="164" height="79" viewBox="0 0 164 79" fill="none" xmlns="http://www.w3.org/2000/svg">
<path d="M27.75 24.3125C27.75 24.3958 27.7083 24.5208 27.625 24.6875C27.5417 24.8333 27.4375 24.9896 27.3125 25.1562C27.1875 25.3021 27.0521 25.4479 26.9062 25.5938C26.7812 25.7396 26.6667 25.8542 26.5625 25.9375C26.4792 26 26.3646 26.0417 26.2188 26.0625C26.0729 26.0833 25.9583 26.125 25.875 26.1875C25.7083 26.3333 25.5312 26.5 25.3438 26.6875C25.1771 26.875 25.0104 27.0521 24.8438 27.2188C24.6771 27.3854 24.5104 27.5312 24.3438 27.6562C24.1979 27.7604 24.0521 27.8125 23.9062 27.8125C23.3646 27.8125 22.8542 27.6979 22.375 27.4688C21.9167 27.2188 21.3958 26.9583 20.8125 26.6875C20.2292 26.3958 19.5312 26.1354 18.7188 25.9062C17.9271 25.6562 16.9062 25.5312 15.6562 25.5312C15.2396 25.5312 14.8229 25.5833 14.4062 25.6875C13.9896 25.7708 13.6042 25.9375 13.25 26.1875C12.9583 26.4167 12.6667 26.7083 12.375 27.0625C12.0833 27.4167 11.7604 27.75 11.4062 28.0625C11.1979 28.25 10.9792 28.3854 10.75 28.4688C10.5208 28.5521 10.3542 28.6458 10.25 28.75C10.125 28.875 10 29.0625 9.875 29.3125C9.77083 29.5625 9.65625 29.7708 9.53125 29.9375C9.28125 30.25 9.08333 30.5104 8.9375 30.7188C8.79167 30.9062 8.60417 31.1875 8.375 31.5625C8.3125 31.6667 8.22917 31.75 8.125 31.8125C8.04167 31.8542 7.96875 31.9271 7.90625 32.0312C7.84375 32.1146 7.80208 32.2292 7.78125 32.375C7.78125 32.5 7.73958 32.6146 7.65625 32.7188C7.57292 32.8438 7.5 32.9479 7.4375 33.0312C7.375 33.0938 7.30208 33.2083 7.21875 33.375C7.15625 33.5417 7.0625 33.7917 6.9375 34.125C6.83333 34.4375 6.6875 34.9062 6.5 35.5312C6.47917 35.6146 6.42708 35.8646 6.34375 36.2812C6.26042 36.6771 6.15625 37.0521 6.03125 37.4062C5.96875 37.5729 5.83333 37.7708 5.625 38C5.41667 38.2292 5.3125 38.5104 5.3125 38.8438C5.3125 38.9896 5.32292 39.1562 5.34375 39.3438C5.36458 39.5312 5.375 39.7292 5.375 39.9375C5.375 40.2917 5.29167 40.6042 5.125 40.875C4.95833 41.125 4.875 41.3958 4.875 41.6875C4.875 41.9167 4.90625 42.1979 4.96875 42.5312C5.05208 42.8438 5.10417 43.1458 5.125 43.4375C5.14583 43.9375 5.15625 44.4479 5.15625 44.9688C5.17708 45.4896 5.20833 46.0104 5.25 46.5312C5.29167 47.0312 5.35417 47.5208 5.4375 48C5.52083 48.4792 5.64583 48.9167 5.8125 49.3125V49.375C5.8125 49.4167 5.80208 49.4688 5.78125 49.5312C5.78125 49.5729 5.78125 49.6146 5.78125 49.6562C5.78125 49.7188 5.79167 49.75 5.8125 49.75C5.97917 49.8958 6.09375 50.1042 6.15625 50.375C6.23958 50.625 6.33333 50.9271 6.4375 51.2812C6.54167 51.6146 6.69792 51.9792 6.90625 52.375C7.11458 52.75 7.44792 53.125 7.90625 53.5C8.09375 53.6667 8.35417 53.8125 8.6875 53.9375C9.04167 54.0625 9.39583 54.2292 9.75 54.4375C10.125 54.6667 10.4688 54.9062 10.7812 55.1562C11.0938 55.4062 11.3021 55.5521 11.4062 55.5938C11.6354 55.6562 11.9688 55.7083 12.4062 55.75C12.8646 55.7708 13.3333 55.7812 13.8125 55.7812C14.4375 55.7812 14.9688 55.7708 15.4062 55.75C15.8438 55.7083 16.2396 55.6458 16.5938 55.5625C16.9479 55.4792 17.2812 55.3646 17.5938 55.2188C17.9062 55.0729 18.25 54.8854 18.625 54.6562C18.7708 54.5729 18.9375 54.5 19.125 54.4375C19.3125 54.375 19.4583 54.2917 19.5625 54.1875C19.75 54.0208 19.9167 53.7917 20.0625 53.5C20.2292 53.2083 20.4583 52.9792 20.75 52.8125C20.8542 52.7292 21 52.6979 21.1875 52.7188C21.3958 52.7188 21.5521 52.6667 21.6562 52.5625C21.8229 52.3958 21.9375 52.1771 22 51.9062C22.0833 51.6146 22.2083 51.3646 22.375 51.1562C22.5417 50.9479 22.7292 50.7812 22.9375 50.6562C23.1667 50.5312 23.3646 50.3854 23.5312 50.2188C23.6562 50.0938 23.7812 49.9375 23.9062 49.75C24.0521 49.5625 24.1979 49.3854 24.3438 49.2188C24.5104 49.0312 24.6979 48.8854 24.9062 48.7812C25.1146 48.6562 25.3646 48.5938 25.6562 48.5938H25.875C25.7083 49.0104 25.4688 49.375 25.1562 49.6875C24.8646 50 24.5625 50.3333 24.25 50.6875L22.125 53.0312C21.8958 53.2812 21.6875 53.6354 21.5 54.0938C21.3125 54.5521 21.0625 54.9688 20.75 55.3438C20.6458 55.4479 20.5 55.5521 20.3125 55.6562C20.125 55.7604 19.9583 55.8958 19.8125 56.0625C19.5833 56.2917 19.4167 56.4896 19.3125 56.6562C19.2292 56.8229 19.0833 57.0104 18.875 57.2188C18.75 57.3229 18.5833 57.3958 18.375 57.4375C18.1875 57.4583 17.9688 57.5417 17.7188 57.6875C17.6354 57.7292 17.5833 57.8229 17.5625 57.9688C17.5625 58.0938 17.5104 58.1562 17.4062 58.1562C17.3646 58.1562 17.3125 58.1458 17.25 58.125C17.2083 58.125 17.1667 58.125 17.125 58.125C17.0208 58.125 16.9167 58.1875 16.8125 58.3125C16.7292 58.4583 16.6354 58.5625 16.5312 58.625C16.1979 58.75 15.7917 58.8229 15.3125 58.8438C14.8333 58.8854 14.3854 58.9688 13.9688 59.0938C13.4896 59.2188 12.8958 59.2812 12.1875 59.2812C11.5208 59.2812 10.8646 59.2292 10.2188 59.125C9.57292 59.0208 9.04167 58.8542 8.625 58.625C8.125 58.3542 7.51042 58.0729 6.78125 57.7812C6.07292 57.4896 5.4375 57.1458 4.875 56.75C4.83333 56.7083 4.79167 56.625 4.75 56.5C4.70833 56.375 4.66667 56.3125 4.625 56.3125C4.47917 56.2292 4.33333 56.1771 4.1875 56.1562C4.04167 56.1146 3.88542 56 3.71875 55.8125C3.55208 55.625 3.375 55.3438 3.1875 54.9688C3 54.5729 2.78125 54.2292 2.53125 53.9375C2.09375 53.4583 1.79167 52.7812 1.625 51.9062C1.45833 51.0104 1.29167 50.0625 1.125 49.0625C1.125 49.0208 1.08333 48.9583 1 48.875C0.9375 48.7917 0.90625 48.6979 0.90625 48.5938C0.90625 48.4479 0.875 48.2396 0.8125 47.9688C0.770833 47.6979 0.71875 47.4062 0.65625 47.0938C0.614583 46.7604 0.5625 46.4375 0.5 46.125C0.458333 45.8125 0.4375 45.5417 0.4375 45.3125C0.4375 45.125 0.46875 44.9062 0.53125 44.6562C0.59375 44.4062 0.635417 44.1667 0.65625 43.9375C0.71875 43.375 0.770833 42.7917 0.8125 42.1875C0.875 41.5625 0.947917 40.9479 1.03125 40.3438C1.11458 39.7188 1.21875 39.125 1.34375 38.5625C1.46875 37.9792 1.63542 37.4375 1.84375 36.9375V36.9062C1.84375 36.8646 1.83333 36.8125 1.8125 36.75C1.8125 36.6667 1.8125 36.6042 1.8125 36.5625C1.8125 36.5 1.82292 36.4583 1.84375 36.4375C1.98958 36.3333 2.07292 36.1875 2.09375 36C2.11458 35.7917 2.1875 35.5625 2.3125 35.3125C2.35417 35.1667 2.44792 35.0208 2.59375 34.875C2.76042 34.7083 2.89583 34.5312 3 34.3438C3.10417 34.1771 3.1875 33.9688 3.25 33.7188C3.33333 33.4688 3.40625 33.2917 3.46875 33.1875C3.63542 32.9583 3.875 32.7083 4.1875 32.4375C4.52083 32.1458 4.83333 31.8542 5.125 31.5625C5.64583 31.0208 6.15625 30.4896 6.65625 29.9688C7.17708 29.4271 7.75 28.875 8.375 28.3125C8.95833 27.7708 9.54167 27.2812 10.125 26.8438C10.7083 26.4062 11.2917 25.9583 11.875 25.5C12.0625 25.3542 12.1771 25.1875 12.2188 25C12.2812 24.8125 12.3958 24.6667 12.5625 24.5625C12.9167 24.2708 13.3854 24 13.9688 23.75C14.5729 23.5 15.125 23.2292 15.625 22.9375C15.75 22.875 15.8958 22.7812 16.0625 22.6562C16.25 22.5104 16.4271 22.375 16.5938 22.25C16.7604 22.1042 16.9271 21.9896 17.0938 21.9062C17.2604 21.8021 17.4062 21.75 17.5312 21.75C17.5729 21.75 17.625 21.7604 17.6875 21.7812C17.75 21.7812 17.8021 21.7812 17.8438 21.7812C17.9479 21.7812 18.0938 21.7188 18.2812 21.5938C18.4688 21.4688 18.6875 21.4062 18.9375 21.4062C19.2292 21.4062 19.5521 21.4479 19.9062 21.5312C20.2604 21.6146 20.6042 21.7083 20.9375 21.8125C21.2917 21.9167 21.6146 22.0312 21.9062 22.1562C22.1979 22.2812 22.4375 22.375 22.625 22.4375C22.8125 22.5208 22.9479 22.5625 23.0312 22.5625C23.1146 22.5625 23.2396 22.5833 23.4062 22.625C23.5729 22.6458 23.8333 22.7292 24.1875 22.875C24.5625 23.0208 25.125 23.2708 25.875 23.625C25.9583 23.6667 26.0938 23.7083 26.2812 23.75C26.4896 23.7917 26.6979 23.8333 26.9062 23.875C27.1146 23.9167 27.2917 23.9792 27.4375 24.0625C27.6042 24.125 27.7083 24.2083 27.75 24.3125ZM45.1562 38.3438C45.1562 38.7812 45.1458 39.1562 45.125 39.4688C45.1042 39.7812 45.0729 40.0729 45.0312 40.3438C45.0104 40.6146 44.9688 40.8854 44.9062 41.1562C44.8438 41.4271 44.7708 41.7292 44.6875 42.0625C44.5208 42.7917 44.375 43.5208 44.25 44.25C44.125 44.9583 43.9688 45.7083 43.7812 46.5C43.7604 46.5833 43.6979 46.7083 43.5938 46.875C43.5104 47.0417 43.4167 47.2292 43.3125 47.4375C43.2083 47.6458 43.1042 47.8542 43 48.0625C42.9167 48.2708 42.8542 48.4479 42.8125 48.5938C42.7083 49.0104 42.5417 49.3542 42.3125 49.625C42.1042 49.8958 41.8854 50.25 41.6562 50.6875C41.5521 50.9167 41.4792 51.1771 41.4375 51.4688C41.3958 51.7396 41.3125 51.9479 41.1875 52.0938C41.1458 52.1562 41.0312 52.2604 40.8438 52.4062C40.6771 52.5521 40.4792 52.7188 40.25 52.9062C40.0417 53.0938 39.8229 53.2812 39.5938 53.4688C39.3854 53.6562 39.2188 53.8229 39.0938 53.9688C39.0104 54.0729 38.9271 54.1979 38.8438 54.3438C38.7812 54.4896 38.7083 54.6042 38.625 54.6875C38.5208 54.75 38.3958 54.7812 38.25 54.7812C38.125 54.7812 38.0104 54.8229 37.9062 54.9062C37.8646 54.9688 37.8229 55.0729 37.7812 55.2188C37.7604 55.3438 37.7083 55.4062 37.625 55.4062C37.5833 55.4062 37.5208 55.4062 37.4375 55.4062C37.375 55.3854 37.3229 55.375 37.2812 55.375C37.1979 55.375 37.0104 55.4896 36.7188 55.7188C36.4271 55.9271 36.1042 56.1667 35.75 56.4375C35.4167 56.7083 35.0938 56.9688 34.7812 57.2188C34.4896 57.4688 34.2917 57.625 34.1875 57.6875C34.0417 57.7917 33.8854 57.875 33.7188 57.9375C33.5729 58 33.4271 58.0833 33.2812 58.1875C33.0938 58.2708 32.9479 58.3646 32.8438 58.4688C32.7396 58.5938 32.6354 58.6979 32.5312 58.7812C32.4271 58.8854 32.3125 58.9688 32.1875 59.0312C32.0625 59.0938 31.8854 59.125 31.6562 59.125C31.5938 59.125 31.4688 59.0833 31.2812 59C31.0938 58.9167 30.9062 58.8021 30.7188 58.6562C30.5312 58.5312 30.3542 58.375 30.1875 58.1875C30.0417 58 29.9688 57.8021 29.9688 57.5938C29.9688 57.5312 29.9792 57.4688 30 57.4062C30.0208 57.3229 30.0312 57.2396 30.0312 57.1562C30.0312 57.0938 30.0208 57.0417 30 57C29.75 56.4792 29.4688 55.9896 29.1562 55.5312C28.8646 55.0521 28.7188 54.4896 28.7188 53.8438C28.7188 53.6146 28.75 53.3854 28.8125 53.1562C28.875 52.9062 28.9062 52.5729 28.9062 52.1562C28.9062 51.6354 28.875 51.0417 28.8125 50.375C28.75 49.6875 28.7188 49.0104 28.7188 48.3438C28.7188 47.7188 28.8125 47.0208 29 46.25C29.1875 45.4792 29.4375 44.7083 29.75 43.9375C30.0625 43.1458 30.4167 42.3854 30.8125 41.6562C31.2292 40.9271 31.6562 40.2917 32.0938 39.75C32.4062 39.3542 32.7396 38.9792 33.0938 38.625C33.4479 38.2708 33.8125 37.9062 34.1875 37.5312C34.5833 37.1562 34.9792 36.7708 35.375 36.375C35.7708 35.9792 36.1562 35.5417 36.5312 35.0625C36.7604 34.7708 37.0625 34.4688 37.4375 34.1562C37.8333 33.8438 38.2292 33.5208 38.625 33.1875C38.7292 33.125 38.8438 33.0938 38.9688 33.0938C39.0938 33.0938 39.2083 33.0521 39.3125 32.9688C39.5208 32.8229 39.6979 32.6667 39.8438 32.5C39.9896 32.3333 40.1146 32.1771 40.2188 32.0312C40.3229 31.8854 40.4271 31.7708 40.5312 31.6875C40.6354 31.5833 40.75 31.5312 40.875 31.5312C40.9792 31.5312 41.0729 31.5417 41.1562 31.5625C41.2604 31.5833 41.3646 31.5938 41.4688 31.5938C41.5938 31.5938 41.6875 31.5625 41.75 31.5C41.8125 31.4167 41.875 31.3333 41.9375 31.25C42 31.1458 42.0729 31.0625 42.1562 31C42.2604 30.9167 42.4062 30.875 42.5938 30.875C42.9896 30.9375 43.2708 31.0417 43.4375 31.1875C43.625 31.3125 43.75 31.4792 43.8125 31.6875C43.875 31.8958 43.9271 32.1458 43.9688 32.4375C44.0104 32.7292 44.0938 33.0625 44.2188 33.4375L44.6875 35.0625C44.7708 35.3542 44.8646 35.6354 44.9688 35.9062C45.0729 36.1771 45.1354 36.4271 45.1562 36.6562C45.1562 36.8438 45.1146 36.9792 45.0312 37.0625C44.9479 37.125 44.9062 37.2396 44.9062 37.4062C44.9062 37.5104 44.9479 37.6458 45.0312 37.8125C45.1146 37.9583 45.1562 38.1354 45.1562 38.3438ZM40.5 42.7812C40.5 42.4479 40.4688 42.0833 40.4062 41.6875C40.3646 41.2917 40.3229 40.875 40.2812 40.4375C40.2396 39.8958 40.2083 39.3229 40.1875 38.7188C40.1875 38.1146 40.1667 37.5521 40.125 37.0312C40.0833 36.5104 40.0208 36.0833 39.9375 35.75C39.875 35.4167 39.7604 35.25 39.5938 35.25C39.3646 35.25 39.0104 35.375 38.5312 35.625C38.0729 35.875 37.6354 36.1562 37.2188 36.4688C37.1146 36.5729 37.0104 36.75 36.9062 37C36.8021 37.2292 36.6771 37.4479 36.5312 37.6562C36.0104 38.3646 35.5729 39.0208 35.2188 39.625C34.8854 40.2292 34.6042 40.8438 34.375 41.4688C34.1458 42.0938 33.9479 42.7604 33.7812 43.4688C33.6146 44.1562 33.4479 44.9375 33.2812 45.8125C33.1562 46.4792 33.0312 47.0521 32.9062 47.5312C32.7812 48.0104 32.7188 48.5625 32.7188 49.1875C32.7188 51.0208 32.9062 52.4375 33.2812 53.4375C33.6771 54.4375 34.1458 54.9375 34.6875 54.9375C35.0208 54.9375 35.2604 54.8438 35.4062 54.6562C35.5729 54.4479 35.7083 54.2917 35.8125 54.1875C35.9167 54.125 36.0312 54.0938 36.1562 54.0938C36.3021 54.0938 36.4271 54.0521 36.5312 53.9688C36.9688 53.5729 37.3021 53.1042 37.5312 52.5625C37.7604 52.0208 37.9688 51.4792 38.1562 50.9375H38.3438C38.4062 50.9375 38.4375 50.9167 38.4375 50.875C38.4375 50.8333 38.4271 50.7812 38.4062 50.7188C38.4062 50.6354 38.4062 50.5729 38.4062 50.5312C38.4062 50.3854 38.4375 50.2292 38.5 50.0625C38.5833 49.8958 38.6771 49.7396 38.7812 49.5938C38.8854 49.4479 38.9896 49.3125 39.0938 49.1875C39.1979 49.0417 39.2708 48.9271 39.3125 48.8438C39.5 48.4896 39.625 48.1667 39.6875 47.875C39.7708 47.5625 39.8229 47.2604 39.8438 46.9688C39.8854 46.6562 39.9062 46.3542 39.9062 46.0625C39.9271 45.75 39.9688 45.4271 40.0312 45.0938C40.0938 44.6146 40.1771 44.1875 40.2812 43.8125C40.3854 43.4375 40.4583 43.0938 40.5 42.7812ZM59.5938 49.7812C59.5521 50.0521 59.5 50.3229 59.4375 50.5938C59.3958 50.8646 59.2917 51.1354 59.125 51.4062C59.0208 51.5938 58.8646 51.7604 58.6562 51.9062C58.4479 52.0312 58.2917 52.1771 58.1875 52.3438C58.0625 52.5104 57.9479 52.7083 57.8438 52.9375C57.7396 53.1458 57.625 53.3333 57.5 53.5C57.2917 53.7708 57.0521 54.0312 56.7812 54.2812C56.5312 54.5104 56.3021 54.8021 56.0938 55.1562C55.8438 55.5729 55.5625 55.9583 55.25 56.3125C54.9583 56.6667 54.5417 57.125 54 57.6875C53.8333 57.875 53.6979 58.1042 53.5938 58.375C53.4896 58.6458 53.3854 58.8125 53.2812 58.875C53.1771 58.9583 53.0208 59 52.8125 59C52.625 59.0208 52.4792 59.0521 52.375 59.0938C52.375 59.0938 52.3229 59.125 52.2188 59.1875C52.1354 59.25 52.0312 59.3125 51.9062 59.375C51.8021 59.4583 51.6771 59.5208 51.5312 59.5625C51.4062 59.625 51.2917 59.6562 51.1875 59.6562C50.75 59.6562 50.4167 59.5417 50.1875 59.3125C49.9583 59.0833 49.7917 58.75 49.6875 58.3125C49.6042 57.875 49.5521 57.3333 49.5312 56.6875C49.5312 56.0417 49.5312 55.3021 49.5312 54.4688C49.5312 54.0729 49.5417 53.7396 49.5625 53.4688C49.6042 53.1771 49.6458 52.9167 49.6875 52.6875C49.75 52.4375 49.8021 52.1979 49.8438 51.9688C49.9062 51.7396 49.9688 51.4792 50.0312 51.1875C50.1562 50.5208 50.2292 49.8438 50.25 49.1562C50.2917 48.4688 50.375 47.7396 50.5 46.9688C50.5417 46.6771 50.6146 46.375 50.7188 46.0625C50.8438 45.75 50.9271 45.4271 50.9688 45.0938C51.1146 43.8646 51.1875 42.6042 51.1875 41.3125C51.2083 40.0208 51.2917 38.7188 51.4375 37.4062C51.5 36.7188 51.5938 36.0208 51.7188 35.3125C51.8646 34.5833 52 33.875 52.125 33.1875C52.2917 32.2917 52.4375 31.3333 52.5625 30.3125C52.7083 29.2708 52.8438 28.2188 52.9688 27.1562C53.1146 26.0938 53.25 25.0312 53.375 23.9688C53.5 22.8854 53.625 21.8438 53.75 20.8438C53.7917 20.4896 53.875 20.1354 54 19.7812C54.1458 19.4062 54.2188 19.0417 54.2188 18.6875C54.2188 18.25 54.0625 17.875 53.75 17.5625C53.4167 17.625 53.1875 17.7917 53.0625 18.0625C52.9583 18.3125 52.8021 18.5417 52.5938 18.75C52.3021 19.0417 52.0312 19.2917 51.7812 19.5C51.5312 19.7083 51.2604 20 50.9688 20.375C50.8854 20.4792 50.8021 20.6146 50.7188 20.7812C50.6354 20.9479 50.5312 21.1146 50.4062 21.2812C50.3021 21.4271 50.1667 21.5521 50 21.6562C49.8333 21.7604 49.625 21.8125 49.375 21.8125C49.1667 21.8125 49.0417 21.7604 49 21.6562C48.9583 21.5312 48.9375 21.4062 48.9375 21.2812C48.9375 21.0938 48.9896 20.9167 49.0938 20.75C49.2188 20.5625 49.3542 20.3854 49.5 20.2188C49.6667 20.0312 49.8438 19.8542 50.0312 19.6875C50.2188 19.5208 50.375 19.3542 50.5 19.1875C50.8333 18.7917 51.1458 18.3854 51.4375 17.9688C51.75 17.5312 52.0625 17.1667 52.375 16.875C52.6042 16.6458 52.8958 16.4271 53.25 16.2188C53.6042 16.0104 53.9375 15.7604 54.25 15.4688C54.5417 15.1979 54.7708 14.8646 54.9375 14.4688C55.125 14.0729 55.3542 13.7812 55.625 13.5938C55.7083 13.5312 55.8125 13.5 55.9375 13.5C56.0833 13.4792 56.2188 13.4583 56.3438 13.4375C56.4896 13.3958 56.625 13.3438 56.75 13.2812C56.875 13.1979 56.9688 13.0729 57.0312 12.9062C57.3438 12.9062 57.6146 12.9896 57.8438 13.1562C58.0729 13.3021 58.2604 13.4792 58.4062 13.6875C58.5729 13.875 58.6979 14.0521 58.7812 14.2188C58.8646 14.3854 58.9062 14.4792 58.9062 14.5C58.9062 14.7292 58.8333 14.9896 58.6875 15.2812C58.5625 15.5521 58.4792 15.8542 58.4375 16.1875C58.3958 16.5208 58.3646 16.875 58.3438 17.25C58.3229 17.6042 58.2917 18.0104 58.25 18.4688C58.2292 18.9271 58.1771 19.4479 58.0938 20.0312C58.0104 20.5938 57.8958 21.25 57.75 22C57.6667 22.3958 57.5312 22.7708 57.3438 23.125C57.1771 23.4792 57.0729 23.8021 57.0312 24.0938C56.9062 24.9896 56.8438 25.9583 56.8438 27C56.8438 28.0208 56.75 29 56.5625 29.9375C56.5 30.25 56.4062 30.5417 56.2812 30.8125C56.1562 31.0625 56.0938 31.3333 56.0938 31.625C56.0938 31.7083 56.0938 31.8229 56.0938 31.9688C56.1146 32.0938 56.125 32.2083 56.125 32.3125C56.125 32.4583 56.0833 32.5625 56 32.625C55.9375 32.6667 55.9062 32.7083 55.9062 32.75C55.9062 32.8125 55.9375 32.875 56 32.9375C56.0625 32.9792 56.0938 33.0833 56.0938 33.25C56.0938 33.7292 55.9896 34.2083 55.7812 34.6875C55.5729 35.1458 55.4375 35.5833 55.375 36C55.2292 37.0417 55.1562 38.1042 55.1562 39.1875C55.1771 40.2708 55.1042 41.3125 54.9375 42.3125C54.8958 42.5417 54.8125 42.7708 54.6875 43C54.5625 43.2292 54.4896 43.4583 54.4688 43.6875C54.4271 44.3333 54.3854 45.0312 54.3438 45.7812C54.3229 46.5312 54.2917 47.2396 54.25 47.9062C54.1875 48.3438 54.1042 48.8333 54 49.375C53.8958 49.9167 53.7917 50.4792 53.6875 51.0625C53.6042 51.625 53.5208 52.1875 53.4375 52.75C53.375 53.3125 53.3438 53.8333 53.3438 54.3125C53.3438 54.6458 53.3646 54.8958 53.4062 55.0625C53.4479 55.2292 53.5 55.3542 53.5625 55.4375C53.6458 55.5 53.7188 55.5417 53.7812 55.5625C53.8646 55.5625 53.9375 55.5625 54 55.5625C54.1458 55.5625 54.2812 55.5104 54.4062 55.4062C54.5312 55.3021 54.6458 55.1771 54.75 55.0312C54.875 54.8854 54.9792 54.7396 55.0625 54.5938C55.1667 54.4271 55.2708 54.2917 55.375 54.1875C56.0833 53.5625 56.6146 52.9896 56.9688 52.4688C57.3229 51.9271 57.6146 51.4583 57.8438 51.0625C58.0729 50.6667 58.2917 50.3542 58.5 50.125C58.7083 49.8958 59.0312 49.7812 59.4688 49.7812H59.5938ZM92.2812 3.96875V3.9375C91.9271 4.6875 91.6354 5.28125 91.4062 5.71875C91.1979 6.15625 91 6.52083 90.8125 6.8125C90.625 7.08333 90.4479 7.32292 90.2812 7.53125C90.1146 7.73958 89.9062 8 89.6562 8.3125C89.5312 8.35417 89.3125 8.52083 89 8.8125C88.6875 9.10417 88.3542 9.42708 88 9.78125C87.6458 10.1354 87.3125 10.4583 87 10.75C86.6875 11.0417 86.4688 11.2083 86.3438 11.25C86.2812 11.4375 86.1458 11.625 85.9375 11.8125C85.75 12 85.5208 12.1771 85.25 12.3438C84.9792 12.5104 84.6979 12.6875 84.4062 12.875C84.1146 13.0417 83.8438 13.2083 83.5938 13.375C83.1771 13.6667 82.8229 13.9167 82.5312 14.125C82.2604 14.3125 81.9896 14.4896 81.7188 14.6562C81.4479 14.8229 81.1562 14.9792 80.8438 15.125C80.5312 15.25 80.1354 15.3854 79.6562 15.5312C78.7812 15.8021 77.8021 16.0312 76.7188 16.2188C75.6354 16.4062 74.5938 16.5 73.5938 16.5C72.9479 16.5 72.3021 16.4688 71.6562 16.4062C71.0104 16.3229 70.5208 16.1979 70.1875 16.0312C70.0625 16.1562 70 16.2396 70 16.2812C70 16.3646 70.0521 16.4375 70.1562 16.5C70.2604 16.5417 70.3438 16.6146 70.4062 16.7188C70.4896 16.8438 70.5625 17 70.625 17.1875C70.6875 17.375 70.7708 17.5312 70.875 17.6562C71.0833 17.9271 71.3229 18.1667 71.5938 18.375C71.8854 18.5833 72.1146 18.8125 72.2812 19.0625C72.3854 19.1875 72.4583 19.375 72.5 19.625C72.5625 19.8542 72.6458 20.0521 72.75 20.2188C72.8542 20.4062 72.9688 20.5729 73.0938 20.7188C73.2396 20.8438 73.3646 20.9896 73.4688 21.1562C73.8646 21.8646 74.2083 22.5208 74.5 23.125C74.7917 23.7292 75.1458 24.3958 75.5625 25.125C75.6458 25.2917 75.7604 25.4479 75.9062 25.5938C76.0521 25.7396 76.1667 25.8958 76.25 26.0625C76.3125 26.2292 76.3438 26.4167 76.3438 26.625C76.3646 26.8333 76.4167 27.0312 76.5 27.2188C76.75 27.9271 77.0208 28.6667 77.3125 29.4375C77.625 30.1875 77.8958 30.9271 78.125 31.6562C78.2292 32.0521 78.3021 32.4792 78.3438 32.9375C78.4062 33.3958 78.4896 33.8229 78.5938 34.2188C78.7812 34.9688 78.9583 35.625 79.125 36.1875C79.2917 36.75 79.375 37.4271 79.375 38.2188C79.375 38.5729 79.3646 38.9271 79.3438 39.2812C79.3229 39.6354 79.3021 39.9792 79.2812 40.3125C79.2396 40.625 79.1354 40.9375 78.9688 41.25C78.8229 41.5625 78.7604 41.8958 78.7812 42.25C78.7812 42.4167 78.7917 42.5833 78.8125 42.75C78.8333 42.8958 78.8438 43.0417 78.8438 43.1875C78.8438 43.625 78.7812 44.0729 78.6562 44.5312C78.5312 44.9688 78.3854 45.4271 78.2188 45.9062C78.0521 46.3646 77.875 46.8333 77.6875 47.3125C77.5 47.7708 77.3333 48.2292 77.1875 48.6875C77.1042 48.9792 76.9688 49.3021 76.7812 49.6562C76.6146 50.0104 76.4375 50.3542 76.25 50.6875C76.0625 51.0208 75.8958 51.3229 75.75 51.5938C75.625 51.8646 75.5625 52.0625 75.5625 52.1875C75.5625 52.2917 75.5104 52.375 75.4062 52.4375C75.3229 52.4792 75.2083 52.5208 75.0625 52.5625C74.9375 52.6042 74.8021 52.6562 74.6562 52.7188C74.5312 52.7604 74.4375 52.8229 74.375 52.9062C74.1667 53.1979 74.0104 53.5625 73.9062 54C73.8229 54.4167 73.6771 54.8229 73.4688 55.2188C73.4479 55.2396 73.375 55.3229 73.25 55.4688C73.125 55.5938 72.9896 55.75 72.8438 55.9375C72.6979 56.1042 72.5625 56.2708 72.4375 56.4375C72.3333 56.6042 72.2812 56.7396 72.2812 56.8438C72.2812 56.9479 72.2292 57.0312 72.125 57.0938C72.0208 57.1354 71.8854 57.1875 71.7188 57.25C71.5729 57.3125 71.3958 57.3854 71.1875 57.4688C71 57.5521 70.8229 57.6667 70.6562 57.8125C70.5729 57.875 70.5 57.9688 70.4375 58.0938C70.375 58.2396 70.2917 58.375 70.1875 58.5C70.1042 58.625 70 58.7396 69.875 58.8438C69.75 58.9479 69.5938 59 69.4062 59C69.3021 59 69.1771 58.9896 69.0312 58.9688C68.9062 58.9479 68.7917 58.9375 68.6875 58.9375C68.5208 58.9375 68.3854 59.0208 68.2812 59.1875C68.1771 59.3542 68.0417 59.4375 67.875 59.4375C67.6875 59.4375 67.5521 59.4062 67.4688 59.3438C67.4062 59.3021 67.3438 59.2396 67.2812 59.1562C67.2396 59.0938 67.1979 59.0208 67.1562 58.9375C67.1146 58.8542 67.0312 58.7812 66.9062 58.7188C66.6771 58.6146 66.4062 58.5625 66.0938 58.5625C65.7812 58.5625 65.5833 58.5417 65.5 58.5C65.375 58.3958 65.2188 58.1458 65.0312 57.75C64.8646 57.3542 64.6458 56.9792 64.375 56.625C64.2083 56.4375 64.0521 56.2812 63.9062 56.1562C63.7812 56.0312 63.6562 55.9167 63.5312 55.8125C63.4062 55.6875 63.2917 55.5521 63.1875 55.4062C63.1042 55.2396 63.0312 55.0208 62.9688 54.75C62.9271 54.5833 62.8438 54.4688 62.7188 54.4062C62.6146 54.3438 62.5417 54.2292 62.5 54.0625C62.3542 53.6667 62.2604 53.3229 62.2188 53.0312C62.1771 52.7396 62.1042 52.375 62 51.9375C62 51.8542 61.9688 51.7292 61.9062 51.5625C61.8646 51.375 61.8125 51.1875 61.75 51C61.7083 50.7917 61.6667 50.5938 61.625 50.4062C61.5833 50.1979 61.5625 50.0312 61.5625 49.9062C61.5625 49.3229 61.5938 48.7396 61.6562 48.1562C61.7396 47.5729 61.7812 47.0312 61.7812 46.5312C61.7812 46.2604 61.7917 46 61.8125 45.75C61.8333 45.5 61.8958 45.2292 62 44.9375C62.0417 44.875 62.125 44.7604 62.25 44.5938C62.375 44.4271 62.4583 44.3125 62.5 44.25C62.6458 43.7292 62.8021 43.25 62.9688 42.8125C63.1354 42.3542 63.3333 41.8854 63.5625 41.4062C63.7917 40.9062 64.0625 40.3542 64.375 39.75C64.6875 39.125 65.0625 38.375 65.5 37.5C65.5417 37.4167 65.5729 37.3021 65.5938 37.1562C65.6354 36.9896 65.6875 36.875 65.75 36.8125C65.7708 36.7917 65.8229 36.7604 65.9062 36.7188C66.0104 36.6771 66.1146 36.6354 66.2188 36.5938C66.3438 36.5312 66.4479 36.4792 66.5312 36.4375C66.6354 36.375 66.6875 36.3125 66.6875 36.25C66.6875 36.2083 66.6771 36.1562 66.6562 36.0938C66.6562 36.0312 66.6562 35.9792 66.6562 35.9375C66.6562 35.9375 66.75 35.8333 66.9375 35.625C67.125 35.4167 67.3438 35.1771 67.5938 34.9062C67.8438 34.6146 68.0938 34.3333 68.3438 34.0625C68.6146 33.7917 68.8333 33.6146 69 33.5312C69.1667 33.4479 69.3333 33.4167 69.5 33.4375C69.6667 33.4375 69.8229 33.3958 69.9688 33.3125C70.1562 33.1667 70.3229 32.9583 70.4688 32.6875C70.6146 32.4167 70.75 32.2292 70.875 32.125C71.0625 31.9583 71.2917 31.7812 71.5625 31.5938C71.8333 31.4062 72.0833 31.2188 72.3125 31.0312C72.5625 30.8438 72.7708 30.6771 72.9375 30.5312C73.125 30.3646 73.2188 30.2292 73.2188 30.125C73.2188 29.8542 73.125 29.5312 72.9375 29.1562C72.75 28.7812 72.5312 28.4167 72.2812 28.0625C72.0521 27.7083 71.8438 27.3958 71.6562 27.125C71.4688 26.8333 71.375 26.6354 71.375 26.5312C71.3542 26.3854 71.2812 26.2292 71.1562 26.0625C71.0312 25.8958 70.8958 25.7292 70.75 25.5625C70.6042 25.375 70.4688 25.2083 70.3438 25.0625C70.2396 24.9167 70.1875 24.7812 70.1875 24.6562C70.1875 24.5312 70.125 24.3854 70 24.2188C69.875 24.0312 69.7396 23.8438 69.5938 23.6562C69.4479 23.4688 69.3125 23.2917 69.1875 23.125C69.0625 22.9583 69 22.8229 69 22.7188C69 22.3021 68.7604 21.8229 68.2812 21.2812C67.8229 20.7188 67.2917 20.0625 66.6875 19.3125C66.6667 19.2917 66.6562 19.2604 66.6562 19.2188C66.6562 19.1771 66.6562 19.125 66.6562 19.0625C66.6771 19 66.6875 18.9479 66.6875 18.9062C66.6875 18.8021 66.5625 18.6354 66.3125 18.4062C66.0833 18.1771 65.8229 17.9271 65.5312 17.6562C65.2396 17.3854 64.9688 17.125 64.7188 16.875C64.4896 16.6042 64.375 16.3958 64.375 16.25C64.3542 16.0625 64.1771 15.8333 63.8438 15.5625C63.5312 15.2917 63.1875 15.0104 62.8125 14.7188C62.4375 14.4062 62.0938 14.1042 61.7812 13.8125C61.4688 13.5 61.3125 13.2292 61.3125 13C61.375 12.6042 61.4896 12.375 61.6562 12.3125C61.8438 12.25 62.125 12.1667 62.5 12.0625C62.625 12.0417 62.7917 11.9792 63 11.875C63.2083 11.7708 63.4271 11.6667 63.6562 11.5625C63.8854 11.4375 64.125 11.3333 64.375 11.25C64.625 11.1667 64.8542 11.125 65.0625 11.125C65.4167 11.125 65.8021 11.1979 66.2188 11.3438C66.6562 11.4688 67.0417 11.625 67.375 11.8125C67.4375 11.8542 67.5208 11.9479 67.625 12.0938C67.7292 12.2188 67.8125 12.2917 67.875 12.3125C68.1667 12.4167 68.5 12.4583 68.875 12.4375C69.25 12.3958 69.6146 12.4271 69.9688 12.5312C70.1146 12.5729 70.2396 12.6667 70.3438 12.8125C70.4479 12.9583 70.5833 13.0312 70.75 13.0312C70.7917 13.0312 70.8333 13.0312 70.875 13.0312C70.9375 13.0104 70.9896 13 71.0312 13C71.1146 13 71.3125 13.0312 71.625 13.0938C71.9375 13.1354 72.3021 13.1875 72.7188 13.25C73.1562 13.3125 73.6042 13.375 74.0625 13.4375C74.5417 13.4792 74.9688 13.5 75.3438 13.5C75.8646 13.5 76.4792 13.4479 77.1875 13.3438C77.8958 13.2396 78.6042 13.1042 79.3125 12.9375C80.0208 12.75 80.6771 12.5312 81.2812 12.2812C81.9062 12.0312 82.3854 11.7604 82.7188 11.4688C82.8854 11.3229 83.0312 11.1562 83.1562 10.9688C83.2812 10.7812 83.4375 10.6042 83.625 10.4375C83.9167 10.1667 84.2292 9.94792 84.5625 9.78125C84.9167 9.59375 85.2708 9.34375 85.625 9.03125C86.1667 8.55208 86.7812 7.98958 87.4688 7.34375C88.1771 6.67708 88.7917 6.03125 89.3125 5.40625C89.4375 5.26042 89.6042 5.05208 89.8125 4.78125C90.0208 4.48958 90.2292 4.16667 90.4375 3.8125C90.6458 3.4375 90.8438 3.05208 91.0312 2.65625C91.2188 2.23958 91.3646 1.84375 91.4688 1.46875C91.5104 1.05208 91.6042 0.729167 91.75 0.5C91.9167 0.25 92.0833 0.125 92.25 0.125C92.5833 0.125 92.75 0.489583 92.75 1.21875C92.75 1.21875 92.7292 1.36458 92.6875 1.65625C92.6458 1.92708 92.5938 2.23958 92.5312 2.59375C92.4896 2.92708 92.4375 3.23958 92.375 3.53125C92.3333 3.82292 92.3021 3.96875 92.2812 3.96875ZM75.7812 38.9062C75.7812 38.7188 75.7604 38.5833 75.7188 38.5C75.6979 38.3958 75.6562 38.3021 75.5938 38.2188C75.5521 38.1146 75.5 37.9896 75.4375 37.8438C75.3958 37.6979 75.3542 37.5 75.3125 37.25C75.2292 36.8333 75.1979 36.4167 75.2188 36C75.2396 35.5625 75.1979 35.125 75.0938 34.6875C74.9479 34.125 74.7812 33.6354 74.5938 33.2188C74.4062 32.7812 74.2917 32.5625 74.25 32.5625C73.9583 32.5625 73.7292 32.6354 73.5625 32.7812C73.3958 32.9271 73.2812 33.0208 73.2188 33.0625C73.0312 33.1667 72.8021 33.2604 72.5312 33.3438C72.2812 33.4271 72.0417 33.5625 71.8125 33.75C71.5625 33.9792 71.2396 34.3125 70.8438 34.75C70.4479 35.1667 70.0625 35.6042 69.6875 36.0625C69.3125 36.5 68.9896 36.8958 68.7188 37.25C68.4479 37.5833 68.3021 37.7604 68.2812 37.7812C67.9688 38.5938 67.75 39.1771 67.625 39.5312C67.5208 39.8854 67.4479 40.1562 67.4062 40.3438C67.3646 40.5312 67.3333 40.7083 67.3125 40.875C67.3125 41.0208 67.2604 41.2917 67.1562 41.6875C67.1146 41.8542 67.0208 42.0208 66.875 42.1875C66.7292 42.3333 66.6562 42.5208 66.6562 42.75C66.6562 42.8958 66.6667 43.0312 66.6875 43.1562C66.7083 43.2812 66.7188 43.4062 66.7188 43.5312C66.7188 43.7396 66.6771 43.9375 66.5938 44.125C66.5312 44.2917 66.4583 44.4583 66.375 44.625C66.2917 44.7917 66.2083 44.9583 66.125 45.125C66.0625 45.2917 66.0312 45.4688 66.0312 45.6562C66.0312 45.9479 66.0521 46.3229 66.0938 46.7812C66.1562 47.2396 66.2188 47.7188 66.2812 48.2188C66.3438 48.6979 66.4062 49.1562 66.4688 49.5938C66.5521 50.0312 66.625 50.3542 66.6875 50.5625C66.6875 50.625 66.6771 50.6875 66.6562 50.75C66.6562 50.7917 66.6562 50.8438 66.6562 50.9062C66.6562 50.9896 66.7188 51.1146 66.8438 51.2812C66.9896 51.4271 67.0938 51.5729 67.1562 51.7188C67.3438 52.2604 67.5729 52.7604 67.8438 53.2188C68.1146 53.6562 68.3854 54.0417 68.6562 54.375C68.9479 54.7083 69.2292 54.9688 69.5 55.1562C69.7708 55.3438 70 55.4375 70.1875 55.4375C70.3333 55.4375 70.5312 55.3021 70.7812 55.0312C71.0521 54.7396 71.3333 54.3958 71.625 54C71.9375 53.5833 72.2292 53.1562 72.5 52.7188C72.7917 52.2604 73.0312 51.8542 73.2188 51.5C73.5104 50.9792 73.8021 50.3854 74.0938 49.7188C74.3854 49.0521 74.5625 48.3958 74.625 47.75C74.625 47.625 74.6562 47.5312 74.7188 47.4688C74.7812 47.4062 74.8333 47.3542 74.875 47.3125C74.9792 46.8958 75.0312 46.5312 75.0312 46.2188C75.0312 45.8854 75.0521 45.5417 75.0938 45.1875C75.1146 44.7292 75.1667 44.2292 75.25 43.6875C75.3333 43.125 75.4062 42.5625 75.4688 42C75.5521 41.4375 75.625 40.8958 75.6875 40.375C75.75 39.8333 75.7812 39.3438 75.7812 38.9062ZM101.344 38.5625C101.302 38.6667 101.208 38.8125 101.062 39C100.917 39.1667 100.844 39.4479 100.844 39.8438C100.844 40.1771 100.885 40.5208 100.969 40.875C101.052 41.2083 101.094 41.5312 101.094 41.8438C101.094 42.4062 101.021 43.0312 100.875 43.7188C100.75 44.3854 100.604 45.0208 100.438 45.625C100.292 46.2083 100.146 46.7083 100 47.125C99.875 47.5208 99.8125 47.7292 99.8125 47.75V48.5625C99.8125 48.7708 99.8021 48.9583 99.7812 49.125C99.7812 49.2917 99.7604 49.4375 99.7188 49.5625C99.6979 49.5833 99.6562 49.6042 99.5938 49.625C99.5312 49.625 99.4896 49.6771 99.4688 49.7812C99.3854 50.1146 99.2188 50.3542 98.9688 50.5C98.7396 50.625 98.5208 50.8542 98.3125 51.1875C98.2292 51.3125 98.1354 51.4792 98.0312 51.6875C97.9271 51.8958 97.8229 52.1042 97.7188 52.3125C97.6146 52.5208 97.5208 52.7083 97.4375 52.875C97.375 53.0208 97.3438 53.0938 97.3438 53.0938C97.3229 53.2812 97.125 53.5417 96.75 53.875C96.375 54.2083 95.9479 54.5521 95.4688 54.9062C94.9896 55.2604 94.5 55.6146 94 55.9688C93.5208 56.3021 93.1667 56.5729 92.9375 56.7812C92.6667 57.0312 92.4375 57.2604 92.25 57.4688C92.0833 57.6771 91.9167 57.8542 91.75 58C91.6042 58.1667 91.4375 58.2917 91.25 58.375C91.0833 58.4792 90.8646 58.5312 90.5938 58.5312C90.4896 58.5312 90.375 58.5208 90.25 58.5C90.1458 58.5 90.0312 58.5 89.9062 58.5C89.7188 58.5 89.5208 58.5104 89.3125 58.5312C89.125 58.5521 88.9271 58.5938 88.7188 58.6562C88.7188 58.6562 88.6042 58.6667 88.375 58.6875C88.1458 58.7292 87.8958 58.7708 87.625 58.8125C87.3542 58.8542 87.0938 58.8958 86.8438 58.9375C86.6146 59 86.4688 59.0521 86.4062 59.0938C86.2396 59.2604 86.1458 59.5729 86.125 60.0312C86.1042 60.5104 86.0417 61.0625 85.9375 61.6875C85.875 61.9583 85.8125 62.1875 85.75 62.375C85.6875 62.5625 85.625 62.7292 85.5625 62.875C85.5208 63.0417 85.4792 63.2083 85.4375 63.375C85.4167 63.5625 85.4062 63.7812 85.4062 64.0312C85.4062 64.1979 85.4062 64.3646 85.4062 64.5312C85.4271 64.6979 85.4375 64.8646 85.4375 65.0312C85.4375 65.6354 85.3333 66.4583 85.125 67.5C84.9375 68.5625 84.7396 69.6562 84.5312 70.7812C84.4688 71.1146 84.4271 71.4792 84.4062 71.875C84.3854 72.2917 84.3542 72.5521 84.3125 72.6562C84.2083 72.8646 83.9896 73.0938 83.6562 73.3438C83.3229 73.5938 83.0729 73.8333 82.9062 74.0625C82.7188 74.3333 82.4792 74.6667 82.1875 75.0625C81.9167 75.4792 81.6042 75.8438 81.25 76.1562C81.2083 76.1771 81.0938 76.2083 80.9062 76.25C80.7188 76.2917 80.6042 76.3333 80.5625 76.375C80.375 76.625 80.2708 76.875 80.25 77.125C80.2292 77.375 80.1875 77.6042 80.125 77.8125C80.0833 78.0208 79.9792 78.1979 79.8125 78.3438C79.6667 78.5104 79.375 78.625 78.9375 78.6875C78.8333 78.5417 78.7812 78.3542 78.7812 78.125C78.7812 77.7083 78.9167 77.2604 79.1875 76.7812C79.4583 76.3021 79.6771 75.7708 79.8438 75.1875C79.9896 74.6875 80.1146 74.0208 80.2188 73.1875C80.3438 72.375 80.4792 71.4271 80.625 70.3438C80.7708 69.2604 80.9271 68.0625 81.0938 66.75C81.2604 65.4375 81.4688 64.0521 81.7188 62.5938C81.8229 62.0521 81.9375 61.5729 82.0625 61.1562C82.1875 60.7604 82.25 60.4167 82.25 60.125C82.25 59.75 82.1458 59.4896 81.9375 59.3438C81.75 59.1979 81.5312 59.0938 81.2812 59.0312C81.0521 58.9896 80.8333 58.9375 80.625 58.875C80.4375 58.8333 80.3438 58.7188 80.3438 58.5312C80.3438 58.2604 80.4062 58.0208 80.5312 57.8125C80.6771 57.5833 80.8438 57.375 81.0312 57.1875C81.2396 57 81.4479 56.8125 81.6562 56.625C81.8854 56.4375 82.0729 56.25 82.2188 56.0625C82.2812 55.9792 82.3125 55.875 82.3125 55.75C82.3125 55.6042 82.3542 55.4792 82.4375 55.375C82.5417 55.25 82.7083 55.1354 82.9375 55.0312C83.1667 54.9271 83.3021 54.8125 83.3438 54.6875C83.4896 54.3542 83.5938 53.9583 83.6562 53.5C83.7396 53.0417 83.7917 52.5625 83.8125 52.0625C83.8542 51.5625 83.8854 51.0521 83.9062 50.5312C83.9271 50.0104 83.9792 49.5208 84.0625 49.0625C84.125 48.6875 84.2292 48.3125 84.375 47.9375C84.5417 47.5625 84.6667 47.1667 84.75 46.75C84.875 46.1458 84.9375 45.5833 84.9375 45.0625C84.9583 44.5417 85.0521 44.0104 85.2188 43.4688C85.2604 43.3229 85.3333 43.0938 85.4375 42.7812C85.5625 42.4688 85.6562 42.1562 85.7188 41.8438C85.7812 41.4896 85.8021 41.1667 85.7812 40.875C85.7812 40.5625 85.8333 40.2604 85.9375 39.9688C85.9792 39.8438 86.0104 39.6771 86.0312 39.4688C86.0729 39.2604 86.1042 39.0312 86.125 38.7812C86.1458 38.5312 86.1771 38.2917 86.2188 38.0625C86.2604 37.8125 86.3229 37.5938 86.4062 37.4062C86.5104 37.1146 86.5833 36.6771 86.625 36.0938C86.6667 35.4896 86.7396 34.9167 86.8438 34.375C86.9271 33.8958 87.0104 33.4583 87.0938 33.0625C87.1979 32.6667 87.2812 32.25 87.3438 31.8125C87.4062 31.3333 87.4375 30.8542 87.4375 30.375C87.4375 29.8958 87.4792 29.5208 87.5625 29.25C87.5833 29.2083 87.6667 29.1042 87.8125 28.9375C87.9583 28.7708 88.1042 28.5625 88.25 28.3125C88.3542 28.1458 88.4479 27.9271 88.5312 27.6562C88.6146 27.3854 88.6771 27.2188 88.7188 27.1562C88.7812 27.0938 88.9375 27.0208 89.1875 26.9375C89.4375 26.8333 89.6771 26.6667 89.9062 26.4375C90.0521 26.3125 90.1667 26.1875 90.25 26.0625C90.3333 25.9167 90.4271 25.7812 90.5312 25.6562C90.6354 25.5312 90.7604 25.4167 90.9062 25.3125C91.0521 25.2083 91.2604 25.125 91.5312 25.0625C91.7604 25.0625 91.9583 25.125 92.125 25.25C92.2917 25.3542 92.375 25.5208 92.375 25.75C92.375 25.9375 92.3438 26.1562 92.2812 26.4062C92.2188 26.6562 92.1354 26.9167 92.0312 27.1875C91.9479 27.4583 91.8542 27.7292 91.75 28C91.6667 28.2708 91.5938 28.5312 91.5312 28.7812C91.2812 29.7812 91.0625 30.7708 90.875 31.75C90.7083 32.7083 90.5521 33.6771 90.4062 34.6562C90.2604 35.6146 90.1146 36.5938 89.9688 37.5938C89.8229 38.5938 89.6458 39.625 89.4375 40.6875C89.5 40.7708 89.5625 40.8125 89.625 40.8125C89.75 40.8125 89.875 40.7292 90 40.5625C90.125 40.375 90.2604 40.1562 90.4062 39.9062C90.5729 39.6354 90.7396 39.3438 90.9062 39.0312C91.0938 38.6979 91.3021 38.3854 91.5312 38.0938C91.8229 37.7188 92.1667 37.3021 92.5625 36.8438C92.9583 36.3854 93.3854 35.875 93.8438 35.3125C94.0938 35.0208 94.375 34.7292 94.6875 34.4375C95.0208 34.125 95.3646 33.7083 95.7188 33.1875C95.8021 33.0833 95.875 32.9688 95.9375 32.8438C96.0208 32.7188 96.1146 32.6042 96.2188 32.5C96.2812 32.4375 96.4062 32.375 96.5938 32.3125C96.8021 32.25 96.9792 32.1667 97.125 32.0625C97.2292 31.9792 97.3438 31.8542 97.4688 31.6875C97.6146 31.5208 97.7604 31.3646 97.9062 31.2188C98.0729 31.0521 98.2396 30.9167 98.4062 30.8125C98.5938 30.6875 98.7917 30.625 99 30.625C99.1042 30.625 99.2396 30.6771 99.4062 30.7812C99.5729 30.8854 99.75 30.9896 99.9375 31.0938C99.9583 31.1354 100.042 31.3542 100.188 31.75C100.333 32.1458 100.49 32.6562 100.656 33.2812C100.823 33.9062 100.979 34.5938 101.125 35.3438C101.271 36.0938 101.344 36.8438 101.344 37.5938V38.5625ZM96.9062 40.4375C96.8646 39.5625 96.7604 38.9062 96.5938 38.4688C96.4271 38.0312 96.3438 37.6979 96.3438 37.4688C96.3438 37.3438 96.3438 37.2188 96.3438 37.0938C96.3646 36.9688 96.375 36.8438 96.375 36.7188C96.375 36.4271 96.2917 36.1979 96.125 36.0312C95.9583 35.8646 95.8542 35.7812 95.8125 35.7812H95.7188C94.7188 36.8854 93.8542 38.0521 93.125 39.2812C92.3958 40.5104 91.6354 41.9062 90.8438 43.4688C90.7396 43.6354 90.6146 43.7917 90.4688 43.9375C90.3438 44.0833 90.2292 44.2396 90.125 44.4062C90.0417 44.5729 89.9688 44.7604 89.9062 44.9688C89.8438 45.1771 89.7604 45.375 89.6562 45.5625C89.5521 45.7292 89.4271 45.8854 89.2812 46.0312C89.1562 46.1771 89.0521 46.3333 88.9688 46.5C88.4062 47.6458 87.9479 48.8854 87.5938 50.2188C87.2604 51.5521 87.0938 52.9583 87.0938 54.4375C87.5104 54.5417 87.9688 54.6354 88.4688 54.7188C88.9896 54.7812 89.4583 54.8125 89.875 54.8125C90.2292 54.8125 90.5417 54.7708 90.8125 54.6875C91.0833 54.6042 91.3229 54.5208 91.5312 54.4375C91.7604 54.3333 91.9479 54.2396 92.0938 54.1562C92.2396 54.0521 92.3646 53.9896 92.4688 53.9688C92.6771 53.9271 92.8333 53.8854 92.9375 53.8438C93.0625 53.8021 93.1667 53.7604 93.25 53.7188C93.3542 53.6562 93.4479 53.5938 93.5312 53.5312C93.6146 53.4688 93.7188 53.3854 93.8438 53.2812C93.9688 53.1979 94.0938 53.1562 94.2188 53.1562C94.3438 53.1562 94.4583 53.125 94.5625 53.0625C94.6458 53 94.7396 52.8854 94.8438 52.7188C94.9479 52.5521 95.0417 52.3854 95.125 52.2188C95.2292 52.0312 95.3125 51.8646 95.375 51.7188C95.4375 51.5521 95.4792 51.4479 95.5 51.4062V51.2812C95.5 51.1979 95.4896 51.125 95.4688 51.0625C95.4688 51 95.4688 50.9271 95.4688 50.8438C95.4688 50.6146 95.5417 50.3646 95.6875 50.0938C95.8333 49.8021 95.9271 49.625 95.9688 49.5625C96.1354 49.1042 96.2604 48.5938 96.3438 48.0312C96.4271 47.4479 96.4792 46.8438 96.5 46.2188C96.5417 45.5938 96.5625 44.9688 96.5625 44.3438C96.5833 43.7188 96.6146 43.125 96.6562 42.5625C96.6771 42.1667 96.7188 41.7917 96.7812 41.4375C96.8646 41.0833 96.9062 40.75 96.9062 40.4375ZM116.156 49.7812C116.115 50.0521 116.062 50.3229 116 50.5938C115.958 50.8646 115.854 51.1354 115.688 51.4062C115.583 51.5938 115.427 51.7604 115.219 51.9062C115.01 52.0312 114.854 52.1771 114.75 52.3438C114.625 52.5104 114.51 52.7083 114.406 52.9375C114.302 53.1458 114.188 53.3333 114.062 53.5C113.854 53.7708 113.615 54.0312 113.344 54.2812C113.094 54.5104 112.865 54.8021 112.656 55.1562C112.406 55.5729 112.125 55.9583 111.812 56.3125C111.521 56.6667 111.104 57.125 110.562 57.6875C110.396 57.875 110.26 58.1042 110.156 58.375C110.052 58.6458 109.948 58.8125 109.844 58.875C109.74 58.9583 109.583 59 109.375 59C109.188 59.0208 109.042 59.0521 108.938 59.0938C108.938 59.0938 108.885 59.125 108.781 59.1875C108.698 59.25 108.594 59.3125 108.469 59.375C108.365 59.4583 108.24 59.5208 108.094 59.5625C107.969 59.625 107.854 59.6562 107.75 59.6562C107.312 59.6562 106.979 59.5417 106.75 59.3125C106.521 59.0833 106.354 58.75 106.25 58.3125C106.167 57.875 106.115 57.3333 106.094 56.6875C106.094 56.0417 106.094 55.3021 106.094 54.4688C106.094 54.0729 106.104 53.7396 106.125 53.4688C106.167 53.1771 106.208 52.9167 106.25 52.6875C106.312 52.4375 106.365 52.1979 106.406 51.9688C106.469 51.7396 106.531 51.4792 106.594 51.1875C106.719 50.5208 106.792 49.8438 106.812 49.1562C106.854 48.4688 106.938 47.7396 107.062 46.9688C107.104 46.6771 107.177 46.375 107.281 46.0625C107.406 45.75 107.49 45.4271 107.531 45.0938C107.677 43.8646 107.75 42.6042 107.75 41.3125C107.771 40.0208 107.854 38.7188 108 37.4062C108.062 36.7188 108.156 36.0208 108.281 35.3125C108.427 34.5833 108.562 33.875 108.688 33.1875C108.854 32.2917 109 31.3333 109.125 30.3125C109.271 29.2708 109.406 28.2188 109.531 27.1562C109.677 26.0938 109.812 25.0312 109.938 23.9688C110.062 22.8854 110.188 21.8438 110.312 20.8438C110.354 20.4896 110.438 20.1354 110.562 19.7812C110.708 19.4062 110.781 19.0417 110.781 18.6875C110.781 18.25 110.625 17.875 110.312 17.5625C109.979 17.625 109.75 17.7917 109.625 18.0625C109.521 18.3125 109.365 18.5417 109.156 18.75C108.865 19.0417 108.594 19.2917 108.344 19.5C108.094 19.7083 107.823 20 107.531 20.375C107.448 20.4792 107.365 20.6146 107.281 20.7812C107.198 20.9479 107.094 21.1146 106.969 21.2812C106.865 21.4271 106.729 21.5521 106.562 21.6562C106.396 21.7604 106.188 21.8125 105.938 21.8125C105.729 21.8125 105.604 21.7604 105.562 21.6562C105.521 21.5312 105.5 21.4062 105.5 21.2812C105.5 21.0938 105.552 20.9167 105.656 20.75C105.781 20.5625 105.917 20.3854 106.062 20.2188C106.229 20.0312 106.406 19.8542 106.594 19.6875C106.781 19.5208 106.938 19.3542 107.062 19.1875C107.396 18.7917 107.708 18.3854 108 17.9688C108.312 17.5312 108.625 17.1667 108.938 16.875C109.167 16.6458 109.458 16.4271 109.812 16.2188C110.167 16.0104 110.5 15.7604 110.812 15.4688C111.104 15.1979 111.333 14.8646 111.5 14.4688C111.688 14.0729 111.917 13.7812 112.188 13.5938C112.271 13.5312 112.375 13.5 112.5 13.5C112.646 13.4792 112.781 13.4583 112.906 13.4375C113.052 13.3958 113.188 13.3438 113.312 13.2812C113.438 13.1979 113.531 13.0729 113.594 12.9062C113.906 12.9062 114.177 12.9896 114.406 13.1562C114.635 13.3021 114.823 13.4792 114.969 13.6875C115.135 13.875 115.26 14.0521 115.344 14.2188C115.427 14.3854 115.469 14.4792 115.469 14.5C115.469 14.7292 115.396 14.9896 115.25 15.2812C115.125 15.5521 115.042 15.8542 115 16.1875C114.958 16.5208 114.927 16.875 114.906 17.25C114.885 17.6042 114.854 18.0104 114.812 18.4688C114.792 18.9271 114.74 19.4479 114.656 20.0312C114.573 20.5938 114.458 21.25 114.312 22C114.229 22.3958 114.094 22.7708 113.906 23.125C113.74 23.4792 113.635 23.8021 113.594 24.0938C113.469 24.9896 113.406 25.9583 113.406 27C113.406 28.0208 113.312 29 113.125 29.9375C113.062 30.25 112.969 30.5417 112.844 30.8125C112.719 31.0625 112.656 31.3333 112.656 31.625C112.656 31.7083 112.656 31.8229 112.656 31.9688C112.677 32.0938 112.688 32.2083 112.688 32.3125C112.688 32.4583 112.646 32.5625 112.562 32.625C112.5 32.6667 112.469 32.7083 112.469 32.75C112.469 32.8125 112.5 32.875 112.562 32.9375C112.625 32.9792 112.656 33.0833 112.656 33.25C112.656 33.7292 112.552 34.2083 112.344 34.6875C112.135 35.1458 112 35.5833 111.938 36C111.792 37.0417 111.719 38.1042 111.719 39.1875C111.74 40.2708 111.667 41.3125 111.5 42.3125C111.458 42.5417 111.375 42.7708 111.25 43C111.125 43.2292 111.052 43.4583 111.031 43.6875C110.99 44.3333 110.948 45.0312 110.906 45.7812C110.885 46.5312 110.854 47.2396 110.812 47.9062C110.75 48.3438 110.667 48.8333 110.562 49.375C110.458 49.9167 110.354 50.4792 110.25 51.0625C110.167 51.625 110.083 52.1875 110 52.75C109.938 53.3125 109.906 53.8333 109.906 54.3125C109.906 54.6458 109.927 54.8958 109.969 55.0625C110.01 55.2292 110.062 55.3542 110.125 55.4375C110.208 55.5 110.281 55.5417 110.344 55.5625C110.427 55.5625 110.5 55.5625 110.562 55.5625C110.708 55.5625 110.844 55.5104 110.969 55.4062C111.094 55.3021 111.208 55.1771 111.312 55.0312C111.438 54.8854 111.542 54.7396 111.625 54.5938C111.729 54.4271 111.833 54.2917 111.938 54.1875C112.646 53.5625 113.177 52.9896 113.531 52.4688C113.885 51.9271 114.177 51.4583 114.406 51.0625C114.635 50.6667 114.854 50.3542 115.062 50.125C115.271 49.8958 115.594 49.7812 116.031 49.7812H116.156ZM138.812 49.7812C138.958 49.9271 139.031 50.0938 139.031 50.2812C139.031 50.5938 138.938 50.875 138.75 51.125C138.562 51.3542 138.323 51.5833 138.031 51.8125C137.76 52.0208 137.458 52.2396 137.125 52.4688C136.812 52.6979 136.521 52.9688 136.25 53.2812C135.896 53.6979 135.479 54.1771 135 54.7188C134.542 55.2396 134.177 55.7708 133.906 56.3125C133.865 56.4167 133.729 56.6146 133.5 56.9062C133.292 57.1979 133.031 57.5104 132.719 57.8438C132.427 58.1771 132.094 58.4688 131.719 58.7188C131.365 58.9688 131.021 59.0938 130.688 59.0938C130.458 59.0938 130.229 59.0521 130 58.9688C129.792 58.9062 129.594 58.8125 129.406 58.6875C129.219 58.5833 129.062 58.4583 128.938 58.3125C128.833 58.1875 128.781 58.0625 128.781 57.9375C128.781 57.75 128.854 57.5625 129 57.375C129.167 57.1875 129.25 56.8958 129.25 56.5C129.25 56.3958 129.229 56.3229 129.188 56.2812C129.167 56.2396 129.135 56.1875 129.094 56.125C129.073 56.0625 129.052 55.9792 129.031 55.875C129.01 55.7708 129 55.6042 129 55.375C129 55.1458 129.031 54.9062 129.094 54.6562C129.177 54.3854 129.26 54.1146 129.344 53.8438C129.448 53.5521 129.531 53.2708 129.594 53C129.677 52.7083 129.719 52.4271 129.719 52.1562C129.719 52.0938 129.708 52.0312 129.688 51.9688C129.688 51.8854 129.688 51.8125 129.688 51.75C129.688 51.625 129.719 51.4375 129.781 51.1875C129.844 50.9375 129.917 50.6667 130 50.375C130.083 50.0833 130.156 49.7708 130.219 49.4375C130.281 49.0833 130.312 48.75 130.312 48.4375C130.312 48.0417 130.271 47.7083 130.188 47.4375C129.958 47.5208 129.76 47.6458 129.594 47.8125C129.427 47.9583 129.271 48.1354 129.125 48.3438C129 48.5312 128.865 48.7396 128.719 48.9688C128.594 49.1771 128.458 49.375 128.312 49.5625C128.229 49.6667 128.083 49.8021 127.875 49.9688C127.667 50.1354 127.448 50.3125 127.219 50.5C127.01 50.6875 126.823 50.875 126.656 51.0625C126.49 51.2292 126.406 51.3646 126.406 51.4688C126.406 51.5104 126.417 51.5625 126.438 51.625C126.458 51.6875 126.469 51.7396 126.469 51.7812C126.469 51.8438 126.417 51.9375 126.312 52.0625C126.208 52.1875 126.094 52.3229 125.969 52.4688C125.865 52.5938 125.76 52.7188 125.656 52.8438C125.552 52.9479 125.5 53.0208 125.5 53.0625C125.479 53.2917 125.302 53.5104 124.969 53.7188C124.635 53.9062 124.344 54.1458 124.094 54.4375C123.906 54.6458 123.75 54.8646 123.625 55.0938C123.5 55.3229 123.385 55.5312 123.281 55.7188C123.177 55.9062 123.073 56.0625 122.969 56.1875C122.865 56.2917 122.74 56.3438 122.594 56.3438C122.552 56.3438 122.479 56.3333 122.375 56.3125C122.292 56.2917 122.219 56.2812 122.156 56.2812C122.01 56.2812 121.917 56.375 121.875 56.5625C121.854 56.75 121.823 56.8958 121.781 57C121.615 57.2708 121.417 57.4792 121.188 57.625C120.979 57.75 120.708 57.9375 120.375 58.1875C120.229 58.2917 120.125 58.4062 120.062 58.5312C120.021 58.6771 119.958 58.8021 119.875 58.9062C119.792 59.0104 119.656 59.0938 119.469 59.1562C119.302 59.2396 119.031 59.2812 118.656 59.2812C118.448 59.2812 118.25 59.2604 118.062 59.2188C117.875 59.1771 117.781 59.1146 117.781 59.0312C117.781 58.9896 117.792 58.9375 117.812 58.875C117.833 58.8125 117.844 58.7604 117.844 58.7188C117.844 58.6979 117.802 58.6562 117.719 58.5938C117.635 58.5312 117.531 58.4375 117.406 58.3125C117.302 58.2083 117.208 58.0625 117.125 57.875C117.042 57.6667 117 57.4167 117 57.125C117 56.7917 117.031 56.4479 117.094 56.0938C117.177 55.7188 117.26 55.3542 117.344 55C117.448 54.6458 117.542 54.3125 117.625 54C117.708 53.6667 117.771 53.3542 117.812 53.0625C117.896 52.375 117.938 51.6771 117.938 50.9688C117.938 50.2604 118.052 49.625 118.281 49.0625C118.385 48.8542 118.5 48.5729 118.625 48.2188C118.75 47.8646 118.865 47.4479 118.969 46.9688C118.99 46.8438 119.021 46.6667 119.062 46.4375C119.104 46.1875 119.156 45.9167 119.219 45.625C119.281 45.3333 119.344 45.0417 119.406 44.75C119.49 44.4375 119.583 44.1667 119.688 43.9375C119.729 43.875 119.802 43.8021 119.906 43.7188C120.031 43.6146 120.115 43.5312 120.156 43.4688C120.198 43.3438 120.219 43.2083 120.219 43.0625C120.24 42.8958 120.292 42.7292 120.375 42.5625C120.417 42.4792 120.5 42.3958 120.625 42.3125C120.75 42.2083 120.823 42.125 120.844 42.0625C120.948 41.875 121.021 41.6458 121.062 41.375C121.104 41.1042 121.188 40.875 121.312 40.6875C121.396 40.5625 121.542 40.4583 121.75 40.375C121.958 40.2708 122.125 40.1354 122.25 39.9688C122.354 39.8229 122.427 39.6667 122.469 39.5C122.531 39.3333 122.604 39.1875 122.688 39.0625C122.917 38.8125 123.104 38.5938 123.25 38.4062C123.417 38.1979 123.562 38.0104 123.688 37.8438C123.833 37.6771 123.969 37.5208 124.094 37.375C124.219 37.2292 124.375 37.0833 124.562 36.9375C124.688 36.8542 124.833 36.6979 125 36.4688C125.188 36.2396 125.354 36.0833 125.5 36C125.667 35.9375 125.812 35.8854 125.938 35.8438C126.083 35.8021 126.25 35.7083 126.438 35.5625C126.479 35.5208 126.521 35.4375 126.562 35.3125C126.604 35.1667 126.646 35.0833 126.688 35.0625C126.833 35 126.969 34.9479 127.094 34.9062C127.24 34.8646 127.406 34.7604 127.594 34.5938C127.823 34.3854 128 34.1771 128.125 33.9688C128.25 33.7604 128.396 33.5833 128.562 33.4375C128.729 33.3125 128.917 33.2292 129.125 33.1875C129.333 33.1458 129.521 33.0729 129.688 32.9688C130 32.8021 130.312 32.5833 130.625 32.3125C130.958 32.0208 131.302 31.7396 131.656 31.4688C132.01 31.1771 132.375 30.9375 132.75 30.75C133.146 30.5417 133.552 30.4375 133.969 30.4375C134.24 30.4375 134.51 30.4167 134.781 30.375C135.073 30.3125 135.344 30.2812 135.594 30.2812C135.823 30.2812 136.031 30.3229 136.219 30.4062C136.406 30.4896 136.5 30.6667 136.5 30.9375C136.5 31.7292 136.406 32.6146 136.219 33.5938C136.031 34.5729 135.823 35.625 135.594 36.75C135.385 37.875 135.188 39.0625 135 40.3125C134.833 41.5625 134.75 42.8542 134.75 44.1875C134.75 44.2292 134.76 44.2917 134.781 44.375C134.823 44.4583 134.844 44.5833 134.844 44.75C134.844 44.875 134.812 45.0312 134.75 45.2188C134.708 45.3854 134.656 45.5625 134.594 45.75C134.531 45.9167 134.469 46.0833 134.406 46.25C134.365 46.4167 134.344 46.5625 134.344 46.6875C134.344 46.8958 134.344 47.1042 134.344 47.3125C134.365 47.5208 134.375 47.7083 134.375 47.875C134.375 48.2292 134.333 48.625 134.25 49.0625C134.167 49.5 134.062 49.9583 133.938 50.4375C133.833 50.8958 133.74 51.3542 133.656 51.8125C133.573 52.2708 133.531 52.6979 133.531 53.0938C133.531 53.3021 133.542 53.5 133.562 53.6875C133.583 53.8542 133.625 54.0208 133.688 54.1875C133.958 54.0625 134.177 53.9062 134.344 53.7188C134.531 53.5312 134.698 53.3229 134.844 53.0938C135.01 52.8438 135.177 52.5833 135.344 52.3125C135.51 52.0208 135.729 51.7188 136 51.4062C136.104 51.2812 136.25 51.1146 136.438 50.9062C136.625 50.6979 136.823 50.5 137.031 50.3125C137.24 50.125 137.458 49.9583 137.688 49.8125C137.917 49.6667 138.135 49.5938 138.344 49.5938C138.49 49.5938 138.646 49.6562 138.812 49.7812ZM131.562 33.6875C131.5 33.6875 131.438 33.6875 131.375 33.6875C131.312 33.6667 131.26 33.6562 131.219 33.6562C130.906 33.6562 130.667 33.75 130.5 33.9375C130.354 34.1042 130.229 34.1875 130.125 34.1875C130.083 34.1875 130.031 34.1875 129.969 34.1875C129.906 34.1667 129.844 34.1562 129.781 34.1562C129.677 34.1562 129.625 34.2188 129.625 34.3438C129.625 34.4479 129.573 34.5312 129.469 34.5938C129.385 34.6979 129.271 34.75 129.125 34.75C128.979 34.7292 128.865 34.7604 128.781 34.8438C128.677 34.9479 128.573 35.1146 128.469 35.3438C128.385 35.5521 128.25 35.7708 128.062 36C127.896 36.1875 127.688 36.3542 127.438 36.5C127.208 36.6458 127.031 36.7917 126.906 36.9375C126.865 37.0208 126.823 37.1458 126.781 37.3125C126.76 37.4583 126.729 37.5729 126.688 37.6562C126.521 37.9479 126.312 38.3021 126.062 38.7188C125.833 39.1146 125.583 39.5312 125.312 39.9688C125.042 40.4062 124.771 40.8333 124.5 41.25C124.25 41.6458 124.042 42 123.875 42.3125C123.708 42.6042 123.594 42.9479 123.531 43.3438C123.469 43.7396 123.417 44.1562 123.375 44.5938C123.354 45.0104 123.333 45.4167 123.312 45.8125C123.292 46.1875 123.25 46.5 123.188 46.75C122.792 48.125 122.417 49.5104 122.062 50.9062C121.729 52.2812 121.562 53.6146 121.562 54.9062C122 54.8438 122.333 54.6771 122.562 54.4062C122.812 54.1146 123.01 53.7917 123.156 53.4375C123.302 53.0833 123.438 52.7396 123.562 52.4062C123.688 52.0729 123.865 51.8229 124.094 51.6562C124.26 51.5521 124.427 51.4062 124.594 51.2188C124.781 51.0312 124.938 50.8542 125.062 50.6875C125.125 50.6042 125.156 50.5 125.156 50.375C125.156 50.2292 125.198 50.1042 125.281 50C125.406 49.8542 125.552 49.6979 125.719 49.5312C125.906 49.3646 126.094 49.1979 126.281 49.0312C126.469 48.8646 126.635 48.7083 126.781 48.5625C126.948 48.3958 127.073 48.2604 127.156 48.1562C127.24 48.0521 127.281 47.8958 127.281 47.6875C127.302 47.4583 127.333 47.2917 127.375 47.1875C127.583 46.7917 127.812 46.4375 128.062 46.125C128.312 45.7917 128.552 45.4479 128.781 45.0938C129.156 44.5104 129.469 43.9375 129.719 43.375C129.99 42.8125 130.219 42.2396 130.406 41.6562C130.594 41.0729 130.76 40.4792 130.906 39.875C131.052 39.25 131.198 38.5833 131.344 37.875C131.427 37.4583 131.521 37.0104 131.625 36.5312C131.75 36.0521 131.812 35.5625 131.812 35.0625C131.812 34.5417 131.729 34.0833 131.562 33.6875ZM163.406 32.0312C163.469 32.1562 163.5 32.2708 163.5 32.375C163.5 32.625 163.375 32.875 163.125 33.125C162.896 33.375 162.677 33.7083 162.469 34.125C162.385 34.2917 162.354 34.4792 162.375 34.6875C162.396 34.875 162.354 35.0833 162.25 35.3125C162.167 35.4792 162.073 35.5938 161.969 35.6562C161.885 35.7188 161.802 35.7812 161.719 35.8438C161.656 35.8854 161.594 35.9479 161.531 36.0312C161.49 36.1146 161.469 36.25 161.469 36.4375C161.469 36.6042 161.479 36.7604 161.5 36.9062C161.521 37.0521 161.531 37.1771 161.531 37.2812C161.531 37.4479 161.469 37.6458 161.344 37.875C161.24 38.1042 161.094 38.3542 160.906 38.625C160.74 38.875 160.562 39.1354 160.375 39.4062C160.188 39.6771 160.031 39.9375 159.906 40.1875C159.823 40.3542 159.771 40.5208 159.75 40.6875C159.75 40.8333 159.719 40.9792 159.656 41.125C159.51 41.5 159.333 41.875 159.125 42.25C158.938 42.6042 158.75 42.9375 158.562 43.25C158.396 43.5417 158.24 43.7917 158.094 44C157.948 44.2083 157.854 44.3438 157.812 44.4062C157.688 44.5312 157.625 44.6667 157.625 44.8125C157.646 44.9375 157.625 45.1042 157.562 45.3125L157.125 46.25C157.083 46.2917 156.99 46.3333 156.844 46.375C156.719 46.4167 156.656 46.4583 156.656 46.5C156.594 46.625 156.51 46.7708 156.406 46.9375C156.323 47.1042 156.24 47.2708 156.156 47.4375C156.01 47.7083 155.927 48 155.906 48.3125C155.885 48.625 155.823 48.875 155.719 49.0625C155.615 49.2292 155.427 49.4167 155.156 49.625C154.906 49.8125 154.698 50.0104 154.531 50.2188C154.052 50.9479 153.688 51.5208 153.438 51.9375C153.188 52.3333 153.01 52.625 152.906 52.8125C152.865 52.8542 152.771 52.8958 152.625 52.9375C152.5 52.9583 152.438 53.0104 152.438 53.0938C152.438 53.1354 152.438 53.1875 152.438 53.25C152.458 53.2917 152.469 53.3333 152.469 53.375C152.469 53.4583 152.438 53.5312 152.375 53.5938C152.312 53.6354 152.25 53.6979 152.188 53.7812C152.125 53.8438 152.062 53.9271 152 54.0312C151.938 54.1354 151.906 54.2812 151.906 54.4688C151.906 54.7604 151.917 55.0729 151.938 55.4062C151.979 55.7396 152 56.0625 152 56.375C152 56.6042 151.99 56.8125 151.969 57C151.948 57.1875 151.938 57.4271 151.938 57.7188C151.938 58.1771 151.948 58.7188 151.969 59.3438C152.01 59.9688 152.031 60.6042 152.031 61.25C152.031 61.5208 152.021 61.7812 152 62.0312C152 62.3021 151.99 62.5625 151.969 62.8125C151.927 63.2292 151.833 63.6146 151.688 63.9688C151.562 64.3438 151.5 64.7396 151.5 65.1562C151.5 65.3646 151.51 65.5521 151.531 65.7188C151.552 65.9062 151.562 66.0833 151.562 66.25C151.562 66.5625 151.479 66.8333 151.312 67.0625C151.146 67.2917 150.979 67.5833 150.812 67.9375C150.667 68.2292 150.542 68.4792 150.438 68.6875C150.354 68.8958 150.26 69.0938 150.156 69.2812C150.052 69.4688 149.917 69.6562 149.75 69.8438C149.604 70.0521 149.406 70.2812 149.156 70.5312L146.844 72.8438C146.635 73.0521 146.406 73.3021 146.156 73.5938C145.906 73.8854 145.729 74.0312 145.625 74.0312C145.583 74.0312 145.531 74.0208 145.469 74C145.406 74 145.354 74 145.312 74C145.25 74 145.219 74.0104 145.219 74.0312C144.99 74.2812 144.635 74.4792 144.156 74.625C143.677 74.7917 143.135 74.9167 142.531 75C141.927 75.0833 141.302 75.1354 140.656 75.1562C140.01 75.1771 139.427 75.1875 138.906 75.1875C138.823 75.1875 138.75 75.1458 138.688 75.0625C138.625 74.9792 138.542 74.9375 138.438 74.9375C138.396 74.9792 138.365 75.0312 138.344 75.0938C138.344 75.1771 138.198 75.2188 137.906 75.2188C137.615 75.2188 137.333 75.1875 137.062 75.125C136.771 75.0625 136.458 75 136.125 74.9375C136.042 74.9375 135.969 74.9375 135.906 74.9375C135.823 74.9583 135.729 74.9688 135.625 74.9688C135.458 74.9688 135.344 74.9271 135.281 74.8438C135.198 74.7604 135.135 74.7188 135.094 74.7188C134.927 74.7188 134.812 74.75 134.75 74.8125C134.688 74.8958 134.573 74.9375 134.406 74.9375C134.24 74.9375 134.125 74.8958 134.062 74.8125C134 74.75 133.906 74.7188 133.781 74.7188C133.552 74.7396 133.281 74.8125 132.969 74.9375C132.656 75.0625 132.375 75.125 132.125 75.125C131.896 75.125 131.729 75.0521 131.625 74.9062C131.521 74.7604 131.469 74.6042 131.469 74.4375C131.469 74.25 131.542 74.0104 131.688 73.7188C131.833 73.4479 132.021 73.1562 132.25 72.8438C132.458 72.5312 132.688 72.2083 132.938 71.875C133.167 71.5625 133.365 71.2708 133.531 71C133.552 70.9583 133.667 70.8333 133.875 70.625C134.062 70.4167 134.344 70.0729 134.719 69.5938C134.802 69.4896 134.833 69.3646 134.812 69.2188C134.792 69.0938 134.833 68.9896 134.938 68.9062C135.042 68.8021 135.125 68.7604 135.188 68.7812C135.25 68.8021 135.323 68.7604 135.406 68.6562C135.552 68.4896 135.667 68.3333 135.75 68.1875C135.833 68.0417 135.958 67.8854 136.125 67.7188C136.271 67.5729 136.438 67.4375 136.625 67.3125C136.812 67.2083 136.948 67.1146 137.031 67.0312C137.156 66.8854 137.229 66.6979 137.25 66.4688C137.271 66.2604 137.312 66.0521 137.375 65.8438C137.417 65.6562 137.51 65.4896 137.656 65.3438C137.781 65.1979 138.01 65.125 138.344 65.125C138.594 65.125 138.75 65.2188 138.812 65.4062C138.896 65.6146 138.938 65.7396 138.938 65.7812C138.938 66.0104 138.865 66.1875 138.719 66.3125C138.573 66.4375 138.406 66.5417 138.219 66.625C138.031 66.7083 137.865 66.7708 137.719 66.8125C137.573 66.8542 137.5 66.8958 137.5 66.9375C137.5 67.0417 137.542 67.1354 137.625 67.2188C137.708 67.3021 137.75 67.375 137.75 67.4375C137.771 67.5833 137.688 67.8229 137.5 68.1562C137.292 68.4896 137.062 68.8125 136.812 69.125C136.562 69.4583 136.333 69.7396 136.125 69.9688C135.917 70.2188 135.812 70.3333 135.812 70.3125C135.812 70.5417 135.917 70.7083 136.125 70.8125C136.312 70.9167 136.562 71 136.875 71.0625C137.167 71.125 137.5 71.1771 137.875 71.2188C138.229 71.2812 138.573 71.3542 138.906 71.4375C139.281 71.5417 139.76 71.6354 140.344 71.7188C140.948 71.8229 141.573 71.875 142.219 71.875C142.698 71.875 143.177 71.8438 143.656 71.7812C144.135 71.7188 144.573 71.6042 144.969 71.4375C145.01 71.4375 145.031 71.4062 145.031 71.3438C145.052 71.3021 145.115 71.2604 145.219 71.2188C145.448 71.1562 145.615 71.125 145.719 71.125C145.844 71.1458 146.062 71.1042 146.375 71C146.521 71 146.646 70.9271 146.75 70.7812C146.854 70.6562 146.906 70.5625 146.906 70.5C146.906 70.375 146.896 70.2292 146.875 70.0625C146.854 69.9167 146.844 69.7917 146.844 69.6875C146.844 69.5417 146.885 69.3958 146.969 69.25C147.052 69.125 147.135 68.9688 147.219 68.7812C147.323 68.6146 147.417 68.4167 147.5 68.1875C147.583 67.9792 147.625 67.7292 147.625 67.4375C147.625 67.25 147.615 67.0417 147.594 66.8125C147.594 66.5833 147.594 66.3438 147.594 66.0938C147.594 65.8438 147.604 65.5833 147.625 65.3125C147.646 65.0417 147.698 64.75 147.781 64.4375C147.802 64.3542 147.833 64.2812 147.875 64.2188C147.917 64.1771 147.958 64.1354 148 64.0938C148.042 64.0521 148.083 63.9896 148.125 63.9062C148.167 63.8229 148.208 63.6979 148.25 63.5312C148.292 63.2396 148.323 62.9167 148.344 62.5625C148.365 62.2292 148.375 61.8542 148.375 61.4375C148.375 60.8125 148.354 60.1458 148.312 59.4375C148.271 58.75 148.229 58.0729 148.188 57.4062C148.146 56.7396 148.104 56.1146 148.062 55.5312C148.021 54.9271 148 54.4167 148 54C148 53.7083 148.042 53.4792 148.125 53.3125C148.208 53.1458 148.25 53.0521 148.25 53.0312C148.25 52.9688 148.219 52.8333 148.156 52.625C148.115 52.4167 148.062 52.1875 148 51.9375C147.938 51.6667 147.875 51.3958 147.812 51.125C147.771 50.8333 147.75 50.5833 147.75 50.375C147.75 50.2083 147.75 50.0521 147.75 49.9062C147.771 49.7396 147.781 49.5729 147.781 49.4062C147.781 48.9896 147.719 48.5625 147.594 48.125C147.49 47.6667 147.396 47.1979 147.312 46.7188C147.208 46.1562 147.135 45.6667 147.094 45.25C147.052 44.8125 146.99 44.3542 146.906 43.875C146.823 43.3958 146.708 42.8333 146.562 42.1875C146.417 41.5417 146.198 40.7188 145.906 39.7188C145.781 39.3021 145.708 38.8958 145.688 38.5C145.667 38.1042 145.583 37.7396 145.438 37.4062C145.417 37.3646 145.375 37.3438 145.312 37.3438C145.25 37.3438 145.219 37.2812 145.219 37.1562C145.219 37.0521 145.177 36.9271 145.094 36.7812C145.031 36.6146 144.948 36.4583 144.844 36.3125C144.76 36.1458 144.656 36.0104 144.531 35.9062C144.406 35.8021 144.292 35.75 144.188 35.75C143.896 35.75 143.656 35.8958 143.469 36.1875C143.302 36.4792 143.104 36.8021 142.875 37.1562C142.792 37.2604 142.667 37.375 142.5 37.5C142.354 37.625 142.24 37.7396 142.156 37.8438C142.073 37.9896 142.031 38.1458 142.031 38.3125C142.031 38.4792 142.021 38.6354 142 38.7812C142 38.9062 141.958 39.0208 141.875 39.125C141.812 39.2083 141.677 39.25 141.469 39.25C141.385 39.3333 141.281 39.4375 141.156 39.5625C141.031 39.6667 140.906 39.7917 140.781 39.9375C140.698 40.0417 140.646 40.1562 140.625 40.2812C140.625 40.3854 140.604 40.5 140.562 40.625C140.542 40.7292 140.49 40.8229 140.406 40.9062C140.344 40.9688 140.219 41 140.031 41C139.948 41 139.854 40.9896 139.75 40.9688C139.646 40.9271 139.594 40.8229 139.594 40.6562C139.594 40.4479 139.635 40.25 139.719 40.0625C139.823 39.8542 139.948 39.6562 140.094 39.4688C140.24 39.2812 140.396 39.0938 140.562 38.9062C140.729 38.7188 140.885 38.5208 141.031 38.3125C141.094 38.1667 141.156 37.9896 141.219 37.7812C141.302 37.5729 141.469 37.2917 141.719 36.9375C141.76 36.8542 141.833 36.7708 141.938 36.6875C142.042 36.6042 142.115 36.5208 142.156 36.4375C142.219 36.375 142.26 36.2708 142.281 36.125C142.302 35.9792 142.344 35.8542 142.406 35.75C142.49 35.6458 142.604 35.5729 142.75 35.5312C142.896 35.4688 143.021 35.3958 143.125 35.3125C143.188 35.2083 143.219 35.0938 143.219 34.9688C143.219 34.8229 143.26 34.6979 143.344 34.5938C143.51 34.3854 143.667 34.2292 143.812 34.125C143.958 34.0208 144.115 33.8646 144.281 33.6562C144.365 33.5312 144.469 33.3333 144.594 33.0625C144.74 32.7708 144.917 32.4792 145.125 32.1875C145.333 31.8958 145.594 31.6458 145.906 31.4375C146.219 31.2083 146.604 31.0938 147.062 31.0938C147.208 31.1354 147.375 31.2604 147.562 31.4688C147.771 31.6771 147.927 31.8646 148.031 32.0312C148.115 32.2604 148.146 32.5208 148.125 32.8125C148.104 33.0833 148.146 33.3646 148.25 33.6562C148.271 33.7188 148.344 33.8021 148.469 33.9062C148.594 34.0104 148.677 34.0833 148.719 34.125C148.802 34.4167 148.833 34.6771 148.812 34.9062C148.792 35.1146 148.833 35.3958 148.938 35.75C148.938 35.7917 148.969 35.8229 149.031 35.8438C149.115 35.8438 149.156 35.8958 149.156 36C149.219 36.25 149.302 36.4896 149.406 36.7188C149.531 36.9271 149.646 37.1667 149.75 37.4375C149.854 37.6875 149.938 38 150 38.375C150.083 38.7292 150.125 39.1771 150.125 39.7188C150.125 40.1979 150.094 40.5833 150.031 40.875C149.99 41.1667 149.969 41.4479 149.969 41.7188C149.969 41.9271 149.99 42.125 150.031 42.3125C150.094 42.5 150.198 42.7292 150.344 43C150.448 43.1875 150.573 43.3333 150.719 43.4375C150.865 43.5417 150.969 43.7083 151.031 43.9375C151.198 44.4792 151.26 45.0625 151.219 45.6875C151.198 46.2917 151.219 46.875 151.281 47.4375C151.344 48.0417 151.438 48.6146 151.562 49.1562C151.688 49.6979 151.75 50.2396 151.75 50.7812V51.1562C151.917 51.1354 152.062 51.0625 152.188 50.9375C152.312 50.8125 152.427 50.6667 152.531 50.5C152.635 50.3333 152.729 50.1458 152.812 49.9375C152.917 49.7292 153.031 49.5208 153.156 49.3125C153.198 49.2083 153.271 49.1146 153.375 49.0312C153.5 48.9479 153.583 48.875 153.625 48.8125C153.708 48.5833 153.771 48.3229 153.812 48.0312C153.875 47.7188 153.958 47.4375 154.062 47.1875C154.292 46.6875 154.552 46.1875 154.844 45.6875C155.135 45.1875 155.427 44.6771 155.719 44.1562V44.0938C155.719 44.0521 155.708 44 155.688 43.9375C155.688 43.875 155.688 43.8229 155.688 43.7812C155.688 43.7396 155.698 43.7083 155.719 43.6875C155.906 43.5417 156.031 43.3438 156.094 43.0938C156.177 42.8229 156.229 42.5417 156.25 42.25C156.292 41.9583 156.333 41.6562 156.375 41.3438C156.417 41.0312 156.51 40.7292 156.656 40.4375C156.677 40.375 156.719 40.3542 156.781 40.375C156.844 40.375 156.875 40.3125 156.875 40.1875C156.875 40.1667 156.865 40.1458 156.844 40.125C156.844 40.1042 156.844 40.0729 156.844 40.0312C156.844 39.9479 156.927 39.8021 157.094 39.5938C157.26 39.3854 157.344 39.2292 157.344 39.125C157.344 39.0625 157.333 39 157.312 38.9375C157.312 38.8542 157.312 38.7812 157.312 38.7188C157.312 38.7396 157.385 38.6146 157.531 38.3438C157.677 38.0521 157.771 37.7396 157.812 37.4062C157.812 37.3229 157.771 37.2188 157.688 37.0938C157.625 36.9479 157.583 36.8125 157.562 36.6875C157.521 36.3542 157.458 36.1354 157.375 36.0312C157.292 35.9062 157.177 35.8438 157.031 35.8438C156.844 35.8438 156.635 35.8958 156.406 36C156.177 36.1042 155.948 36.1562 155.719 36.1562C155.615 36.1562 155.51 36.1458 155.406 36.125C155.302 36.0833 155.25 35.9792 155.25 35.8125C155.25 35.4792 155.323 35.2188 155.469 35.0312C155.635 34.8438 155.833 34.6979 156.062 34.5938C156.292 34.4896 156.542 34.3958 156.812 34.3125C157.083 34.2083 157.333 34.0729 157.562 33.9062C157.729 33.7812 157.854 33.6875 157.938 33.625C158.021 33.5625 158.135 33.5 158.281 33.4375C158.448 33.3542 158.688 33.25 159 33.125C159.312 32.9792 159.771 32.7708 160.375 32.5C160.667 32.2917 160.958 32.0938 161.25 31.9062C161.562 31.7188 161.948 31.625 162.406 31.625C162.615 31.625 162.802 31.6562 162.969 31.7188C163.156 31.7604 163.302 31.8646 163.406 32.0312Z" fill="url(#paint0_linear_2_14)"/>
<defs>
<linearGradient id="paint0_linear_2_14" x1="-4" y1="45.6811" x2="161" y2="45.3189" gradientUnits="userSpaceOnUse">
<stop stop-color="#DD63DF"/>
<stop offset="0.134615" stop-color="#7B60F3"/>
<stop offset="0.274038" stop-color="#5FBEF7"/>
<stop offset="0.413462" stop-color="#60FDDA"/>
<stop offset="0.543269" stop-color="#5EFF6D"/>
<stop offset="0.653846" stop-color="#A2F272"/>
<stop offset="0.764423" stop-color="#E3FD59"/>
<stop offset="0.841346" stop-color="#FFE266"/>
<stop offset="0.920673" stop-color="#F2AF5F"/>
<stop offset="1" stop-color="#CB6D53"/>
</linearGradient>
</defs>
</svg>
