<svg width="197" height="60" viewBox="0 0 197 60" fill="none" xmlns="http://www.w3.org/2000/svg">
<path d="M29.8388 0.584839C13.5933 0.584839 0.42308 13.7547 0.42308 30.0002C0.42308 46.2464 13.5933 59.4151 29.8388 59.4151C46.086 59.4151 59.2548 46.2464 59.2548 30.0002C59.2548 13.7557 46.086 0.586244 29.8384 0.586244L29.8388 0.584839ZM43.3286 43.0102C43.2031 43.2159 43.0382 43.3948 42.8435 43.5367C42.6487 43.6786 42.4279 43.7807 42.1936 43.8371C41.9594 43.8936 41.7163 43.9032 41.4782 43.8656C41.2402 43.828 41.012 43.7438 40.8065 43.6179C33.9 39.3992 25.2056 38.4438 14.9664 40.7832C14.4922 40.891 13.9947 40.8062 13.5831 40.5473C13.1715 40.2885 12.8795 39.8768 12.7713 39.4027C12.7174 39.168 12.7104 38.925 12.7505 38.6875C12.7907 38.4501 12.8773 38.2229 13.0054 38.019C13.1335 37.815 13.3006 37.6384 13.4971 37.4991C13.6935 37.3598 13.9155 37.2607 14.1504 37.2073C25.3556 34.6474 34.9672 35.7496 42.7209 40.4881C43.585 41.0185 43.859 42.1461 43.3286 43.0102ZM46.929 35.0007C46.2652 36.0798 44.8531 36.4205 43.7747 35.7566C35.8678 30.8966 23.815 29.4891 14.4626 32.328C13.2497 32.6943 11.9687 32.0108 11.6006 30.8C11.4249 30.2179 11.4873 29.5899 11.774 29.0537C12.0607 28.5175 12.5483 28.1169 13.13 27.9397C23.8129 24.6982 37.0937 26.2684 46.1738 31.8482C47.2522 32.512 47.5929 33.9238 46.929 35.0007ZM47.2381 26.6604C37.7576 21.0293 22.1159 20.5115 13.0643 23.2588C11.6108 23.6996 10.0736 22.879 9.63315 21.4255C9.42135 20.7272 9.49556 19.9733 9.83947 19.3297C10.1834 18.6861 10.7688 18.2054 11.4671 17.9934C21.8578 14.839 39.131 15.4485 50.0461 21.9282C50.3572 22.1122 50.6289 22.3558 50.8457 22.645C51.0625 22.9342 51.2201 23.2633 51.3095 23.6135C51.399 23.9637 51.4184 24.3282 51.3667 24.6859C51.3151 25.0436 51.1934 25.3876 51.0086 25.6983C50.2358 27.0057 48.5427 27.4367 47.2396 26.6604H47.2381ZM80.4534 27.7394C75.3742 26.5283 74.4714 25.6782 74.4714 23.8921C74.4714 22.2046 76.0591 21.069 78.4231 21.069C80.7134 21.069 82.9825 21.9313 85.3641 23.7066C85.4343 23.7604 85.5256 23.7818 85.6134 23.7677C85.6576 23.7614 85.7 23.7461 85.7381 23.7228C85.7761 23.6995 85.809 23.6686 85.8347 23.6321L88.3146 20.1364C88.3636 20.0671 88.3843 19.9817 88.3726 19.8977C88.3608 19.8136 88.3175 19.7372 88.2514 19.684C85.4167 17.4103 82.2273 16.3048 78.4969 16.3048C73.0137 16.3048 69.1814 19.5958 69.1814 24.3045C69.1814 29.3538 72.4868 31.1418 78.1983 32.5219C83.0563 33.6413 83.8782 34.5792 83.8782 36.2554C83.8782 38.1136 82.2203 39.2692 79.5507 39.2692C76.586 39.2692 74.1658 38.2682 71.4611 35.9288C71.3937 35.8717 71.3069 35.8428 71.2188 35.848C71.1274 35.855 71.0466 35.8971 70.9904 35.9639L68.2085 39.2728C68.0925 39.4133 68.1066 39.617 68.2401 39.7364C71.3874 42.5465 75.2583 44.0288 79.4383 44.0288C85.3465 44.0288 89.1647 40.8008 89.1647 35.8023C89.1752 31.5847 86.6497 29.2488 80.464 27.744L80.4534 27.7394ZM102.534 22.7305C99.973 22.7305 97.8725 23.7393 96.1372 25.8065V23.4797C96.1376 23.3917 96.1031 23.3072 96.0411 23.2447C95.9792 23.1822 95.895 23.1468 95.8071 23.1464H91.2582C91.0756 23.1464 90.928 23.296 90.928 23.4797V49.3329C90.928 49.5155 91.0756 49.6666 91.2582 49.6666H95.8071C95.9897 49.6666 96.1372 49.5155 96.1372 49.3329V41.1731C97.8725 43.1156 99.973 44.0675 102.534 44.0675C107.293 44.0675 112.113 40.4038 112.113 33.4C112.12 26.3948 107.3 22.7301 102.537 22.7301L102.534 22.7305ZM106.823 33.4C106.823 36.965 104.627 39.4554 101.48 39.4554C98.3713 39.4554 96.0248 36.8526 96.0248 33.4C96.0248 29.9471 98.3713 27.345 101.48 27.345C104.575 27.3446 106.823 29.8909 106.823 33.4ZM124.459 22.7305C118.33 22.7305 113.528 27.45 113.528 33.4762C113.528 39.4379 118.298 44.1061 124.386 44.1061C130.536 44.1061 135.352 39.4027 135.352 33.4C135.352 27.4177 130.568 22.7312 124.459 22.7312V22.7305ZM124.459 39.4905C121.2 39.4905 118.741 36.8701 118.741 33.3983C118.741 29.9106 121.115 27.3798 124.386 27.3798C127.666 27.3798 130.139 29.9991 130.139 33.4745C130.139 36.9615 127.751 39.4905 124.459 39.4905ZM148.44 23.1464H143.435V18.0299C143.435 17.9863 143.426 17.9432 143.41 17.9029C143.393 17.8626 143.369 17.8259 143.338 17.795C143.308 17.7641 143.271 17.7395 143.231 17.7227C143.191 17.7058 143.148 17.6971 143.104 17.6969H138.556C138.373 17.6969 138.222 17.8465 138.222 18.0299V23.1464H136.037C135.854 23.1464 135.707 23.296 135.707 23.4797V27.3882C135.707 27.5715 135.854 27.7215 136.037 27.7215H138.222V37.8361C138.222 41.9213 140.256 43.9937 144.271 43.9937C145.9 43.9937 147.253 43.6565 148.528 42.9329C148.633 42.8767 148.696 42.7643 148.696 42.6449V38.9215C148.696 38.8091 148.637 38.7002 148.538 38.6405C148.491 38.6099 148.435 38.5925 148.379 38.59C148.322 38.5875 148.266 38.6001 148.215 38.6264C147.341 39.0655 146.494 39.2692 145.546 39.2692C144.088 39.2692 143.435 38.6054 143.435 37.123V27.7233H148.44C148.623 27.7233 148.77 27.5737 148.77 27.3899V23.4818C148.772 23.4382 148.764 23.3947 148.749 23.3541C148.733 23.3134 148.709 23.2764 148.678 23.2452C148.648 23.214 148.611 23.1894 148.571 23.1728C148.531 23.1561 148.487 23.1479 148.444 23.1485L148.44 23.1464ZM165.877 23.1664V22.538C165.877 20.6893 166.586 19.8649 168.174 19.8649C169.122 19.8649 169.885 20.0531 170.738 20.3377C170.844 20.3707 170.952 20.3542 171.037 20.2913C171.079 20.2604 171.114 20.2198 171.138 20.1727C171.162 20.1257 171.174 20.0736 171.174 20.0208V16.1886C171.175 16.117 171.152 16.0471 171.11 15.9895C171.067 15.9319 171.007 15.8897 170.938 15.8693C170.039 15.6013 168.887 15.3262 167.159 15.3262C162.961 15.3262 160.738 17.6916 160.738 22.1642V23.1267H158.553C158.37 23.1267 158.219 23.2763 158.219 23.4597V27.3882C158.219 27.5715 158.37 27.7215 158.553 27.7215H160.738V43.3193C160.738 43.5055 160.889 43.653 161.071 43.653H165.617C165.803 43.653 165.95 43.5055 165.95 43.3193V27.7226H170.197L176.703 43.3193C175.965 44.9562 175.238 45.2828 174.247 45.2828C173.446 45.2828 172.6 45.044 171.739 44.5698C171.658 44.5286 171.564 44.5198 171.476 44.5452C171.388 44.5768 171.314 44.64 171.279 44.7243L169.737 48.107C169.663 48.2686 169.727 48.4547 169.881 48.539C171.49 49.4102 172.941 49.7825 174.735 49.7825C178.094 49.7825 179.952 48.2159 181.585 44.0078L189.474 23.6216C189.495 23.5712 189.502 23.5165 189.496 23.4624C189.49 23.4083 189.471 23.3567 189.439 23.3122C189.41 23.2676 189.369 23.2311 189.322 23.2058C189.275 23.1806 189.222 23.1674 189.169 23.1674H184.434C184.29 23.1674 184.163 23.2577 184.118 23.3908L179.267 37.2425L173.956 23.3817C173.932 23.3189 173.89 23.2648 173.834 23.2265C173.779 23.1882 173.714 23.1676 173.647 23.1674H165.877V23.1664ZM155.767 23.1464H151.219C151.036 23.1464 150.885 23.296 150.885 23.4797V43.3193C150.885 43.5055 151.036 43.653 151.219 43.653H155.767C155.95 43.653 156.101 43.5055 156.101 43.3193V23.4811C156.101 23.4373 156.093 23.3939 156.076 23.3533C156.059 23.3128 156.035 23.276 156.004 23.2451C155.973 23.2141 155.936 23.1895 155.895 23.1728C155.855 23.1561 155.811 23.1476 155.767 23.1478V23.1464ZM153.519 14.1123C151.717 14.1123 150.256 15.5707 150.256 17.3723C150.256 17.8008 150.34 18.2252 150.504 18.621C150.668 19.0169 150.909 19.3766 151.212 19.6796C151.515 19.9826 151.875 20.223 152.271 20.3869C152.666 20.5509 153.091 20.6352 153.519 20.6352C155.321 20.6352 156.779 19.175 156.779 17.3723C156.779 15.5711 155.318 14.1123 153.519 14.1123ZM193.359 29.5256C191.561 29.5256 190.159 28.0802 190.159 26.3249C190.159 24.5697 191.578 23.1077 193.377 23.1077C195.175 23.1077 196.577 24.5528 196.577 26.3067C196.577 28.0619 195.158 29.5256 193.359 29.5256ZM193.377 23.426C191.737 23.426 190.497 24.7291 190.497 26.3249C190.497 27.92 191.73 29.2056 193.359 29.2056C195 29.2056 196.24 27.9035 196.24 26.3067C196.24 24.7116 195.007 23.426 193.377 23.426ZM194.086 26.6358L194.993 27.9031H194.227L193.412 26.7405H192.713V27.9031H192.074V24.5437H193.57C194.353 24.5437 194.866 24.9431 194.866 25.6154C194.87 26.1661 194.55 26.5027 194.09 26.6358H194.086ZM193.546 25.1201H192.713V26.1827H193.546C193.96 26.1827 194.209 25.9793 194.209 25.6508C194.209 25.3052 193.96 25.1201 193.546 25.1201Z" fill="#1ED760"/>
</svg>
