<svg width="741" height="98" viewBox="0 0 741 98" fill="none" xmlns="http://www.w3.org/2000/svg">
<g clip-path="url(#clip0_28_85)">
<path d="M453.021 26.9883C439.96 26.9883 429.425 36.8075 429.425 48.9809C429.425 61.1543 439.96 70.9735 453.021 70.9735C466.081 70.9735 476.616 61.1543 476.616 48.9809C476.616 36.8075 466.081 26.9883 453.021 26.9883ZM453.021 63.279C444.58 63.279 437.68 56.8668 437.68 48.9809C437.68 41.095 444.56 34.6829 453.021 34.6829C461.481 34.6829 468.361 41.095 468.361 48.9809C468.361 56.8668 461.461 63.279 453.021 63.279ZM483.085 26.0887C483.085 28.9407 480.621 31.2184 477.581 31.2184C474.521 31.2184 472.078 28.9215 472.078 26.0887C472.078 23.2559 474.542 20.959 477.581 20.959C480.621 20.959 483.085 23.2559 483.085 26.0887ZM498.713 31.295C498.363 24.4235 496.679 18.3368 491.279 13.3219C485.898 8.30708 479.368 6.73755 471.996 6.39302C464.397 5.99106 441.623 5.99106 434.025 6.39302C426.673 6.71841 420.143 8.28794 414.742 13.3028C409.341 18.3176 407.678 24.4043 407.308 31.2758C406.877 38.3579 406.877 59.5848 407.308 66.6668C407.657 73.5383 409.341 79.625 414.742 84.6399C420.143 89.6547 426.653 91.2243 434.025 91.5688C441.623 91.9707 464.397 91.9707 471.996 91.5688C479.368 91.2434 485.898 89.6739 491.279 84.6399C496.659 79.625 498.343 73.5383 498.713 66.6668C499.144 59.5848 499.144 38.377 498.713 31.295ZM488.896 74.2657C487.295 78.0172 484.194 80.9075 480.148 82.4196C474.09 84.659 459.715 84.1422 453.021 84.1422C446.326 84.1422 431.93 84.6399 425.893 82.4196C421.868 80.9266 418.767 78.0364 417.145 74.2657C414.742 68.6192 415.296 55.2208 415.296 48.9809C415.296 42.7411 414.763 29.3235 417.145 23.6961C418.746 19.9446 421.847 17.0543 425.893 15.5422C431.951 13.3028 446.326 13.8196 453.021 13.8196C459.715 13.8196 474.111 13.3219 480.148 15.5422C484.173 17.0352 487.274 19.9254 488.896 23.6961C491.299 29.3426 490.745 42.7411 490.745 48.9809C490.745 55.2208 491.299 68.6383 488.896 74.2657Z" fill="#30343F"/>
</g>
<path d="M580 5.4375C553.503 5.4375 532 25.4008 532 50C532 74.5992 553.503 94.5625 580 94.5625C606.497 94.5625 628 74.5992 628 50C628 25.4008 606.497 5.4375 580 5.4375ZM599.49 71.0055C598.677 71.0055 598.174 70.7719 597.419 70.3586C585.342 63.6023 571.29 63.3148 557.413 65.9562C556.658 66.1359 555.671 66.4234 555.11 66.4234C553.232 66.4234 552.052 65.0398 552.052 63.5844C552.052 61.7336 553.232 60.8531 554.684 60.5656C570.535 57.3133 586.735 57.6008 600.555 65.2734C601.735 65.9742 602.432 66.6031 602.432 68.2383C602.432 69.8734 601.058 71.0055 599.49 71.0055ZM604.697 59.218C603.69 59.218 603.013 58.8047 602.316 58.4633C590.219 51.8148 572.181 49.1375 556.135 53.1805C555.206 53.4141 554.703 53.6477 553.832 53.6477C551.761 53.6477 550.077 52.0844 550.077 50.1617C550.077 48.2391 551.084 46.9633 553.077 46.4422C558.458 45.0406 563.955 43.9984 572.006 43.9984C584.568 43.9984 596.703 46.8914 606.265 52.1742C607.832 53.0367 608.452 54.1508 608.452 55.7141C608.432 57.6547 606.806 59.218 604.697 59.218ZM610.697 45.5258C609.69 45.5258 609.071 45.2922 608.2 44.825C594.419 37.1883 569.781 35.3555 553.832 39.4883C553.135 39.668 552.265 39.9555 551.335 39.9555C548.781 39.9555 546.826 38.1047 546.826 35.7148C546.826 33.2711 548.452 31.8875 550.194 31.4203C557.006 29.5695 564.632 28.6891 572.935 28.6891C587.065 28.6891 601.871 31.4203 612.69 37.2781C614.2 38.0867 615.187 39.2008 615.187 41.3391C615.187 43.7828 613.058 45.5258 610.697 45.5258Z" fill="#30343F"/>
<path d="M721.813 15.3438H732.844L708.75 45.9723L737.094 87.6562H714.906L697.516 62.3816L677.641 87.6562H666.594L692.359 54.8896L665.188 15.3438H687.937L703.641 38.4455L721.813 15.3438ZM717.938 80.3207H724.047L684.609 22.2969H678.047L717.938 80.3207Z" fill="#30343F"/>
<path d="M27.96 15.08C27.2667 15.08 26.6933 15.12 26.24 15.2C25.8133 15.28 25.48 15.4 25.24 15.56C25 15.6933 24.84 15.8533 24.76 16.04C24.68 16.2267 24.64 16.44 24.64 16.68C24.6133 16.7067 24.6 16.8533 24.6 17.12V41.84H23.48C20.52 37.8133 17.6 33.8267 14.72 29.88C11.84 25.9333 8.94667 21.9467 6.04 17.92V38.04C6.04 38.9467 6.25333 39.5733 6.68 39.92C7.13333 40.2667 8.01333 40.44 9.32 40.44V41.72H1.12V40.44C2.34667 40.44 3.22667 40.2533 3.76 39.88C4.21333 39.48 4.44 38.8667 4.44 38.04V17.2C4.44 16.5333 4.2 16.04 3.72 15.72C3.26667 15.3733 2.4 15.2 1.12 15.2V13.84H6.2C9.02667 17.6267 11.8267 21.3733 14.6 25.08C17.4 28.76 20.2133 32.4933 23.04 36.28V17.2C23.04 16.4 22.8 15.8533 22.32 15.56C21.7867 15.24 20.9467 15.08 19.8 15.08V13.84H27.96V15.08ZM47.6653 32.64C47.6653 35.6267 46.812 38.0133 45.1053 39.8C43.4786 41.5867 41.3986 42.48 38.8653 42.48C36.3053 42.48 34.212 41.5867 32.5853 39.8C30.8786 38.0133 30.0253 35.6267 30.0253 32.64C30.0253 29.6533 30.8786 27.2667 32.5853 25.48C34.212 23.6933 36.3053 22.8 38.8653 22.8C41.3986 22.8 43.4786 23.6933 45.1053 25.48C46.812 27.2667 47.6653 29.6533 47.6653 32.64ZM44.9453 32.64C44.9453 30.1867 44.3586 28.1733 43.1853 26.6C42.092 25.0267 40.652 24.24 38.8653 24.24C37.1053 24.24 35.6386 25.0267 34.4653 26.6C33.3186 28.1733 32.7453 30.1867 32.7453 32.64C32.7453 35.0667 33.3053 37.08 34.4253 38.68C35.572 40.2267 37.052 41 38.8653 41C40.5986 41 42.0386 40.2267 43.1853 38.68C44.3586 37.1067 44.9453 35.0933 44.9453 32.64ZM65.39 37.12C65.39 38.2133 65.0833 39.1867 64.47 40.04C64.3367 40.1733 64.2033 40.3067 64.07 40.44C63.9633 40.5733 63.8433 40.7067 63.71 40.84C62.51 41.88 60.8833 42.4 58.83 42.4C57.4167 42.4 56.19 42.1733 55.15 41.72C55.0167 41.6667 54.8833 41.6267 54.75 41.6C54.6433 41.6 54.5233 41.6 54.39 41.6H53.99C53.6967 41.7333 53.4167 41.84 53.15 41.92C52.8833 42.0267 52.6033 42.1333 52.31 42.24C51.9367 41.2267 51.55 40.24 51.15 39.28C50.75 38.2933 50.3633 37.2933 49.99 36.28C50.0967 36.2 50.19 36.12 50.27 36.04C50.3767 35.96 50.4967 35.8933 50.63 35.84C51.7767 37.44 52.87 38.6133 53.91 39.36C55.5633 40.4267 57.19 40.96 58.79 40.96C60.0433 40.96 61.0967 40.5733 61.95 39.8C62.6433 39.1067 62.99 38.2667 62.99 37.28C62.99 36.64 62.7367 36.0667 62.23 35.56C62.1233 35.48 61.99 35.3867 61.83 35.28C61.67 35.1733 61.4833 35.0533 61.27 34.92C60.9233 34.7067 60.47 34.4933 59.91 34.28C59.35 34.04 58.67 33.7867 57.87 33.52C56.6167 33.0933 55.5767 32.7067 54.75 32.36C53.9233 31.9867 53.2967 31.6267 52.87 31.28C51.27 30.2933 50.47 28.9867 50.47 27.36C50.47 25.8667 51.1767 24.68 52.59 23.8C53.6567 23.1333 54.99 22.8 56.59 22.8C57.9767 22.8 59.4033 23.0667 60.87 23.6C61.0833 23.5467 61.31 23.4533 61.55 23.32C61.79 23.16 62.0567 22.9733 62.35 22.76C62.7233 23.72 63.0967 24.6933 63.47 25.68C63.8433 26.64 64.2167 27.6133 64.59 28.6C64.4567 28.6533 64.3233 28.72 64.19 28.8C64.0833 28.88 63.9633 28.9467 63.83 29C63.1633 27.72 62.27 26.68 61.15 25.88C59.4967 24.7867 57.9767 24.24 56.59 24.24C55.5767 24.24 54.7767 24.4133 54.19 24.76C53.31 25.24 52.87 26.0667 52.87 27.24C52.87 27.9867 53.2567 28.6267 54.03 29.16C54.1367 29.2133 54.2433 29.2667 54.35 29.32C54.4567 29.3733 54.5767 29.4267 54.71 29.48C55.0833 29.6933 55.55 29.92 56.11 30.16C56.67 30.4 57.2967 30.6267 57.99 30.84C59.43 31.2933 60.6167 31.7467 61.55 32.2C62.51 32.6267 63.2433 33.0267 63.75 33.4C64.8433 34.28 65.39 35.52 65.39 37.12ZM82.2506 24.04C83.8506 23.2933 85.6906 22.92 87.7706 22.92C89.4506 22.92 90.8106 23.36 91.8506 24.24C92.9706 25.2533 93.5306 26.6667 93.5306 28.48V38.84C93.5306 38.9733 93.5306 39.1333 93.5306 39.32C93.5573 39.5067 93.584 39.6933 93.6106 39.88C93.664 40.0667 93.7306 40.2267 93.8106 40.36C93.9173 40.4933 94.0373 40.56 94.1706 40.56C94.5706 40.56 95.144 40.2667 95.8906 39.68L96.3706 40.28C95.1973 41.6933 94.1573 42.4 93.2506 42.4C92.0773 42.4 91.3706 41.6533 91.1306 40.16C89.4773 41.6533 87.3706 42.4 84.8106 42.4C83.9306 42.4 83.1306 42.3067 82.4106 42.12C81.7173 41.9333 81.1306 41.64 80.6506 41.24C79.664 40.4133 79.1706 39.2533 79.1706 37.76C79.1706 36.64 79.544 35.64 80.2906 34.76C81.064 33.8533 82.0506 33.1067 83.2506 32.52C85.304 31.4533 87.9173 30.72 91.0906 30.32V27.84C91.0906 26.8 90.7706 25.96 90.1306 25.32C89.7573 24.9467 89.3173 24.68 88.8106 24.52C88.3306 24.36 87.8106 24.28 87.2506 24.28C86.184 24.28 85.2773 24.4933 84.5306 24.92C84.0773 25.2133 83.7173 25.5067 83.4506 25.8C83.184 26.0667 83.0506 26.3733 83.0506 26.72V26.92C83.0506 28.2267 82.4773 28.88 81.3306 28.88C80.2906 28.88 79.7706 28.28 79.7706 27.08C79.7706 25.8267 80.5973 24.8133 82.2506 24.04ZM91.0906 31.84C88.744 32.08 86.5706 32.7467 84.5706 33.84C82.7573 34.8533 81.8506 36.1467 81.8506 37.72C81.8506 38.5733 82.1973 39.2667 82.8906 39.8C83.584 40.3067 84.4506 40.56 85.4906 40.56C86.4506 40.56 87.4506 40.3733 88.4906 40C89.344 39.7067 90.2106 39.2 91.0906 38.48V31.84ZM113.835 36.92C113.968 37.0267 114.102 37.12 114.235 37.2C114.368 37.28 114.502 37.3733 114.635 37.48C112.688 40.7867 110.075 42.44 106.795 42.44C104.448 42.44 102.448 41.6133 100.795 39.96C99.1417 38.1467 98.315 35.8667 98.315 33.12C98.315 30.2667 99.2217 27.8133 101.035 25.76C102.795 23.84 104.995 22.88 107.635 22.88C109.208 22.88 110.582 23.1867 111.755 23.8C112.182 24.0133 112.568 24.2667 112.915 24.56C113.288 24.8533 113.595 25.2 113.835 25.6C114.102 26.0533 114.235 26.5067 114.235 26.96C114.235 27.44 114.102 27.8933 113.835 28.32C113.568 28.7467 113.168 28.96 112.635 28.96C111.675 28.96 111.035 28.2133 110.715 26.72C110.635 26.32 110.475 25.9867 110.235 25.72C109.995 25.4533 109.702 25.2133 109.355 25C108.662 24.5733 107.808 24.36 106.795 24.36C105.275 24.36 103.928 25.1467 102.755 26.72C101.582 28.3733 100.995 30.32 100.995 32.56C100.995 33.76 101.142 34.8533 101.435 35.84C101.755 36.8267 102.222 37.68 102.835 38.4C104.088 39.8933 105.648 40.64 107.515 40.64C109.808 40.64 111.915 39.4 113.835 36.92ZM134.54 32.64C134.54 35.6267 133.687 38.0133 131.98 39.8C130.354 41.5867 128.274 42.48 125.74 42.48C123.18 42.48 121.087 41.5867 119.46 39.8C117.754 38.0133 116.9 35.6267 116.9 32.64C116.9 29.6533 117.754 27.2667 119.46 25.48C121.087 23.6933 123.18 22.8 125.74 22.8C128.274 22.8 130.354 23.6933 131.98 25.48C133.687 27.2667 134.54 29.6533 134.54 32.64ZM131.82 32.64C131.82 30.1867 131.234 28.1733 130.06 26.6C128.967 25.0267 127.527 24.24 125.74 24.24C123.98 24.24 122.514 25.0267 121.34 26.6C120.194 28.1733 119.62 30.1867 119.62 32.64C119.62 35.0667 120.18 37.08 121.3 38.68C122.447 40.2267 123.927 41 125.74 41C127.474 41 128.914 40.2267 130.06 38.68C131.234 37.1067 131.82 35.0933 131.82 32.64ZM167.185 41.72H159.225V40.44C160.212 40.44 160.932 40.2933 161.385 40C161.705 39.68 161.865 39.1733 161.865 38.48V27.92C161.865 25.92 160.758 24.92 158.545 24.92C156.865 24.92 155.052 25.72 153.105 27.32V38.48C153.105 39.2 153.278 39.6933 153.625 39.96C153.892 40.0933 154.198 40.2 154.545 40.28C154.892 40.3867 155.292 40.44 155.745 40.44V41.72H148.025V40.44C148.985 40.44 149.692 40.2933 150.145 40C150.465 39.7333 150.625 39.2267 150.625 38.48V27.52C150.625 25.8133 149.572 24.96 147.465 24.96C145.572 24.96 143.692 25.8 141.825 27.48V38.48C141.825 39.2533 141.998 39.76 142.345 40C142.878 40.2933 143.638 40.44 144.625 40.44V41.72H136.545V40.44C137.772 40.44 138.612 40.2133 139.065 39.76C139.278 39.4667 139.385 39.1333 139.385 38.76V27.28C139.385 26.8533 139.318 26.52 139.185 26.28C139.078 26.04 138.825 25.8533 138.425 25.72C138.212 25.6667 137.972 25.6267 137.705 25.6C137.438 25.5467 137.118 25.52 136.745 25.52C136.718 25.3867 136.692 25.2533 136.665 25.12C136.638 24.96 136.612 24.8133 136.585 24.68C137.465 24.3867 138.345 24.0933 139.225 23.8C140.105 23.5067 140.972 23.2133 141.825 22.92V25.76C144.118 23.8667 146.412 22.92 148.705 22.92C150.945 22.92 152.372 23.9067 152.985 25.88C155.278 23.9067 157.572 22.92 159.865 22.92C161.625 22.92 162.865 23.44 163.585 24.48C164.092 25.2267 164.345 26.2267 164.345 27.48V38.48C164.345 39.2 164.518 39.6933 164.865 39.96C165.078 40.0933 165.385 40.2 165.785 40.28C166.185 40.3867 166.652 40.44 167.185 40.44V41.72ZM187.093 32.48C187.093 35.4667 186.253 37.84 184.573 39.6C183 41.2 181.08 42 178.813 42C176.547 42 174.8 41.4667 173.573 40.4V44.4C173.573 45.0933 173.76 45.6 174.133 45.92C174.587 46.2667 175.253 46.44 176.133 46.44V47.76H168.533V46.44C169.6 46.44 170.32 46.2667 170.693 45.92C170.96 45.6533 171.093 45.1467 171.093 44.4V27.16C171.093 27.0267 171.067 26.8267 171.013 26.56C170.987 26.3467 170.907 26.1733 170.773 26.04C170.507 25.7733 169.813 25.64 168.693 25.64C168.667 25.5067 168.64 25.36 168.613 25.2C168.613 25.04 168.6 24.8933 168.573 24.76C169.427 24.4667 170.267 24.1733 171.093 23.88C171.92 23.56 172.747 23.2533 173.573 22.96V24.56C174.96 23.4933 176.747 22.96 178.933 22.96C181.307 22.96 183.24 23.7867 184.733 25.44C186.307 27.2533 187.093 29.6 187.093 32.48ZM184.413 32.52C184.413 30.2 183.813 28.32 182.613 26.88C181.44 25.3867 179.92 24.64 178.053 24.64C176.187 24.64 174.693 25.24 173.573 26.44V38.4C174.693 39.68 176.187 40.32 178.053 40.32C179.813 40.32 181.293 39.6 182.493 38.16C183.773 36.64 184.413 34.76 184.413 32.52ZM192.524 24.04C194.124 23.2933 195.964 22.92 198.044 22.92C199.724 22.92 201.084 23.36 202.124 24.24C203.244 25.2533 203.804 26.6667 203.804 28.48V38.84C203.804 38.9733 203.804 39.1333 203.804 39.32C203.831 39.5067 203.857 39.6933 203.884 39.88C203.937 40.0667 204.004 40.2267 204.084 40.36C204.191 40.4933 204.311 40.56 204.444 40.56C204.844 40.56 205.417 40.2667 206.164 39.68L206.644 40.28C205.471 41.6933 204.431 42.4 203.524 42.4C202.351 42.4 201.644 41.6533 201.404 40.16C199.751 41.6533 197.644 42.4 195.084 42.4C194.204 42.4 193.404 42.3067 192.684 42.12C191.991 41.9333 191.404 41.64 190.924 41.24C189.937 40.4133 189.444 39.2533 189.444 37.76C189.444 36.64 189.817 35.64 190.564 34.76C191.337 33.8533 192.324 33.1067 193.524 32.52C195.577 31.4533 198.191 30.72 201.364 30.32V27.84C201.364 26.8 201.044 25.96 200.404 25.32C200.031 24.9467 199.591 24.68 199.084 24.52C198.604 24.36 198.084 24.28 197.524 24.28C196.457 24.28 195.551 24.4933 194.804 24.92C194.351 25.2133 193.991 25.5067 193.724 25.8C193.457 26.0667 193.324 26.3733 193.324 26.72V26.92C193.324 28.2267 192.751 28.88 191.604 28.88C190.564 28.88 190.044 28.28 190.044 27.08C190.044 25.8267 190.871 24.8133 192.524 24.04ZM201.364 31.84C199.017 32.08 196.844 32.7467 194.844 33.84C193.031 34.8533 192.124 36.1467 192.124 37.72C192.124 38.5733 192.471 39.2667 193.164 39.8C193.857 40.3067 194.724 40.56 195.764 40.56C196.724 40.56 197.724 40.3733 198.764 40C199.617 39.7067 200.484 39.2 201.364 38.48V31.84ZM227.508 41.72H219.708V40.44C220.642 40.44 221.295 40.32 221.668 40.08C222.122 39.7867 222.348 39.2133 222.348 38.36V28.32C222.348 26.08 221.295 24.96 219.188 24.96C217.935 24.96 216.882 25.1733 216.028 25.6C215.655 25.7867 215.215 26.04 214.708 26.36C214.202 26.6533 213.642 27.0133 213.028 27.44V38.36C213.028 39.16 213.202 39.6933 213.548 39.96C213.762 40.0933 214.055 40.2 214.428 40.28C214.802 40.3867 215.255 40.44 215.788 40.44V41.72H207.988V40.44C209.002 40.44 209.735 40.28 210.188 39.96C210.455 39.6933 210.588 39.16 210.588 38.36V27.32C210.588 26.6 210.455 26.1467 210.188 25.96C209.815 25.6667 209.135 25.52 208.148 25.52C208.095 25.3867 208.055 25.24 208.028 25.08C208.028 24.92 208.002 24.7733 207.948 24.64C208.802 24.3467 209.642 24.0533 210.468 23.76C211.322 23.4667 212.175 23.1733 213.028 22.88V25.72C215.295 23.8533 217.602 22.92 219.948 22.92C221.575 22.92 222.788 23.3867 223.588 24.32C224.388 25.28 224.788 26.64 224.788 28.4V38.32C224.788 39.1467 224.948 39.6933 225.268 39.96C225.482 40.0933 225.775 40.2 226.148 40.28C226.522 40.3867 226.975 40.44 227.508 40.44V41.72ZM248.763 41.72H240.843V40.4C241.936 40.4 242.71 40.2533 243.163 39.96C243.483 39.6933 243.643 39.2133 243.643 38.52V28.56C243.643 26.16 242.35 24.96 239.763 24.96C237.923 24.96 236.03 25.7333 234.083 27.28V38.52C234.083 39.2133 234.256 39.6933 234.603 39.96C235.056 40.2533 235.803 40.4 236.843 40.4V41.72H229.003V40.4C230.016 40.4 230.75 40.2533 231.203 39.96C231.496 39.6667 231.643 39.1867 231.643 38.52V18.08C231.643 17.3333 231.51 16.84 231.243 16.6C230.95 16.3333 230.243 16.2 229.123 16.2C229.096 16.0667 229.07 15.9467 229.043 15.84C229.043 15.7067 229.03 15.5733 229.003 15.44C229.856 15.0933 230.696 14.76 231.523 14.44C232.376 14.0933 233.23 13.7467 234.083 13.4V25.56C236.376 23.7467 238.576 22.84 240.683 22.84C242.443 22.84 243.79 23.2933 244.723 24.2C245.63 25.1333 246.083 26.4533 246.083 28.16V38.52C246.083 39.24 246.23 39.72 246.523 39.96C247.056 40.2533 247.803 40.4 248.763 40.4V41.72ZM267.097 36.92C267.23 37.0267 267.364 37.1333 267.497 37.24C267.657 37.3467 267.804 37.4533 267.937 37.56C267.297 38.52 266.59 39.32 265.817 39.96C265.044 40.6 264.217 41.1333 263.337 41.56C262.137 42.1467 260.844 42.44 259.457 42.44C256.817 42.44 254.657 41.6 252.977 39.92C251.19 38.1333 250.297 35.72 250.297 32.68C250.297 29.7467 251.15 27.3867 252.857 25.6C254.537 23.76 256.67 22.84 259.257 22.84C261.844 22.84 263.884 23.5867 265.377 25.08C266.977 26.6 267.777 28.8 267.777 31.68C265.297 31.76 262.857 31.8533 260.457 31.96C258.057 32.04 255.604 32.12 253.097 32.2C253.097 32.3067 253.084 32.4133 253.057 32.52C253.057 32.6 253.057 32.6933 253.057 32.8C253.057 33.92 253.204 34.9333 253.497 35.84C253.817 36.7467 254.27 37.56 254.857 38.28C256.084 39.88 257.804 40.68 260.017 40.68C261.19 40.68 262.417 40.3733 263.697 39.76C264.284 39.4133 264.857 39.0133 265.417 38.56C266.004 38.08 266.564 37.5333 267.097 36.92ZM253.177 30.68C255.177 30.6267 257.15 30.56 259.097 30.48C261.044 30.4 263.017 30.3333 265.017 30.28C264.99 28.52 264.444 27.1067 263.377 26.04C262.284 24.8667 260.91 24.28 259.257 24.28C257.657 24.28 256.257 24.92 255.057 26.2C253.937 27.3733 253.31 28.8667 253.177 30.68ZM297.956 36.92C298.09 37.0267 298.223 37.1333 298.356 37.24C298.516 37.3467 298.663 37.4533 298.796 37.56C298.156 38.52 297.45 39.32 296.676 39.96C295.903 40.6 295.076 41.1333 294.196 41.56C292.996 42.1467 291.703 42.44 290.316 42.44C287.676 42.44 285.516 41.6 283.836 39.92C282.05 38.1333 281.156 35.72 281.156 32.68C281.156 29.7467 282.01 27.3867 283.716 25.6C285.396 23.76 287.53 22.84 290.116 22.84C292.703 22.84 294.743 23.5867 296.236 25.08C297.836 26.6 298.636 28.8 298.636 31.68C296.156 31.76 293.716 31.8533 291.316 31.96C288.916 32.04 286.463 32.12 283.956 32.2C283.956 32.3067 283.943 32.4133 283.916 32.52C283.916 32.6 283.916 32.6933 283.916 32.8C283.916 33.92 284.063 34.9333 284.356 35.84C284.676 36.7467 285.13 37.56 285.716 38.28C286.943 39.88 288.663 40.68 290.876 40.68C292.05 40.68 293.276 40.3733 294.556 39.76C295.143 39.4133 295.716 39.0133 296.276 38.56C296.863 38.08 297.423 37.5333 297.956 36.92ZM284.036 30.68C286.036 30.6267 288.01 30.56 289.956 30.48C291.903 30.4 293.876 30.3333 295.876 30.28C295.85 28.52 295.303 27.1067 294.236 26.04C293.143 24.8667 291.77 24.28 290.116 24.28C288.516 24.28 287.116 24.92 285.916 26.2C284.796 27.3733 284.17 28.8667 284.036 30.68ZM331.365 41.72H323.405V40.44C324.391 40.44 325.111 40.2933 325.565 40C325.885 39.68 326.045 39.1733 326.045 38.48V27.92C326.045 25.92 324.938 24.92 322.725 24.92C321.045 24.92 319.231 25.72 317.285 27.32V38.48C317.285 39.2 317.458 39.6933 317.805 39.96C318.071 40.0933 318.378 40.2 318.725 40.28C319.071 40.3867 319.471 40.44 319.925 40.44V41.72H312.205V40.44C313.165 40.44 313.871 40.2933 314.325 40C314.645 39.7333 314.805 39.2267 314.805 38.48V27.52C314.805 25.8133 313.751 24.96 311.645 24.96C309.751 24.96 307.871 25.8 306.005 27.48V38.48C306.005 39.2533 306.178 39.76 306.525 40C307.058 40.2933 307.818 40.44 308.805 40.44V41.72H300.725V40.44C301.951 40.44 302.791 40.2133 303.245 39.76C303.458 39.4667 303.565 39.1333 303.565 38.76V27.28C303.565 26.8533 303.498 26.52 303.365 26.28C303.258 26.04 303.005 25.8533 302.605 25.72C302.391 25.6667 302.151 25.6267 301.885 25.6C301.618 25.5467 301.298 25.52 300.925 25.52C300.898 25.3867 300.871 25.2533 300.845 25.12C300.818 24.96 300.791 24.8133 300.765 24.68C301.645 24.3867 302.525 24.0933 303.405 23.8C304.285 23.5067 305.151 23.2133 306.005 22.92V25.76C308.298 23.8667 310.591 22.92 312.885 22.92C315.125 22.92 316.551 23.9067 317.165 25.88C319.458 23.9067 321.751 22.92 324.045 22.92C325.805 22.92 327.045 23.44 327.765 24.48C328.271 25.2267 328.525 26.2267 328.525 27.48V38.48C328.525 39.2 328.698 39.6933 329.045 39.96C329.258 40.0933 329.565 40.2 329.965 40.28C330.365 40.3867 330.831 40.44 331.365 40.44V41.72ZM20.36 81.72H12.56V80.44C13.4933 80.44 14.1467 80.32 14.52 80.08C14.9733 79.7867 15.2 79.2133 15.2 78.36V68.32C15.2 66.08 14.1467 64.96 12.04 64.96C10.7867 64.96 9.73333 65.1733 8.88 65.6C8.50667 65.7867 8.06667 66.04 7.56 66.36C7.05333 66.6533 6.49333 67.0133 5.88 67.44V78.36C5.88 79.16 6.05333 79.6933 6.4 79.96C6.61333 80.0933 6.90667 80.2 7.28 80.28C7.65333 80.3867 8.10667 80.44 8.64 80.44V81.72H0.84V80.44C1.85333 80.44 2.58667 80.28 3.04 79.96C3.30667 79.6933 3.44 79.16 3.44 78.36V67.32C3.44 66.6 3.30667 66.1467 3.04 65.96C2.66667 65.6667 1.98667 65.52 1 65.52C0.946667 65.3867 0.906667 65.24 0.88 65.08C0.88 64.92 0.853333 64.7733 0.8 64.64C1.65333 64.3467 2.49333 64.0533 3.32 63.76C4.17333 63.4667 5.02667 63.1733 5.88 62.88V65.72C8.14667 63.8533 10.4533 62.92 12.8 62.92C14.4267 62.92 15.64 63.3867 16.44 64.32C17.24 65.28 17.64 66.64 17.64 68.4V78.32C17.64 79.1467 17.8 79.6933 18.12 79.96C18.3333 80.0933 18.6267 80.2 19 80.28C19.3733 80.3867 19.8267 80.44 20.36 80.44V81.72ZM39.7747 72.64C39.7747 75.6267 38.9214 78.0133 37.2147 79.8C35.588 81.5867 33.508 82.48 30.9747 82.48C28.4147 82.48 26.3214 81.5867 24.6947 79.8C22.988 78.0133 22.1347 75.6267 22.1347 72.64C22.1347 69.6533 22.988 67.2667 24.6947 65.48C26.3214 63.6933 28.4147 62.8 30.9747 62.8C33.508 62.8 35.588 63.6933 37.2147 65.48C38.9214 67.2667 39.7747 69.6533 39.7747 72.64ZM37.0547 72.64C37.0547 70.1867 36.468 68.1733 35.2947 66.6C34.2014 65.0267 32.7614 64.24 30.9747 64.24C29.2147 64.24 27.748 65.0267 26.5747 66.6C25.428 68.1733 24.8547 70.1867 24.8547 72.64C24.8547 75.0667 25.4147 77.08 26.5347 78.68C27.6814 80.2267 29.1614 81 30.9747 81C32.708 81 34.148 80.2267 35.2947 78.68C36.468 77.1067 37.0547 75.0933 37.0547 72.64ZM57.4994 77.12C57.4994 78.2133 57.1927 79.1867 56.5794 80.04C56.446 80.1733 56.3127 80.3067 56.1794 80.44C56.0727 80.5733 55.9527 80.7067 55.8194 80.84C54.6194 81.88 52.9927 82.4 50.9394 82.4C49.526 82.4 48.2994 82.1733 47.2594 81.72C47.126 81.6667 46.9927 81.6267 46.8594 81.6C46.7527 81.6 46.6327 81.6 46.4994 81.6H46.0994C45.806 81.7333 45.526 81.84 45.2594 81.92C44.9927 82.0267 44.7127 82.1333 44.4194 82.24C44.046 81.2267 43.6594 80.24 43.2594 79.28C42.8594 78.2933 42.4727 77.2933 42.0994 76.28C42.206 76.2 42.2994 76.12 42.3794 76.04C42.486 75.96 42.606 75.8933 42.7394 75.84C43.886 77.44 44.9794 78.6133 46.0194 79.36C47.6727 80.4267 49.2994 80.96 50.8994 80.96C52.1527 80.96 53.206 80.5733 54.0594 79.8C54.7527 79.1067 55.0994 78.2667 55.0994 77.28C55.0994 76.64 54.846 76.0667 54.3394 75.56C54.2327 75.48 54.0994 75.3867 53.9394 75.28C53.7794 75.1733 53.5927 75.0533 53.3794 74.92C53.0327 74.7067 52.5794 74.4933 52.0194 74.28C51.4594 74.04 50.7794 73.7867 49.9794 73.52C48.726 73.0933 47.686 72.7067 46.8594 72.36C46.0327 71.9867 45.406 71.6267 44.9794 71.28C43.3794 70.2933 42.5794 68.9867 42.5794 67.36C42.5794 65.8667 43.286 64.68 44.6994 63.8C45.766 63.1333 47.0994 62.8 48.6994 62.8C50.086 62.8 51.5127 63.0667 52.9794 63.6C53.1927 63.5467 53.4194 63.4533 53.6594 63.32C53.8994 63.16 54.166 62.9733 54.4594 62.76C54.8327 63.72 55.206 64.6933 55.5794 65.68C55.9527 66.64 56.326 67.6133 56.6994 68.6C56.566 68.6533 56.4327 68.72 56.2994 68.8C56.1927 68.88 56.0727 68.9467 55.9394 69C55.2727 67.72 54.3794 66.68 53.2594 65.88C51.606 64.7867 50.086 64.24 48.6994 64.24C47.686 64.24 46.886 64.4133 46.2994 64.76C45.4194 65.24 44.9794 66.0667 44.9794 67.24C44.9794 67.9867 45.366 68.6267 46.1394 69.16C46.246 69.2133 46.3527 69.2667 46.4594 69.32C46.566 69.3733 46.686 69.4267 46.8194 69.48C47.1927 69.6933 47.6594 69.92 48.2194 70.16C48.7794 70.4 49.406 70.6267 50.0994 70.84C51.5394 71.2933 52.726 71.7467 53.6594 72.2C54.6194 72.6267 55.3527 73.0267 55.8594 73.4C56.9527 74.28 57.4994 75.52 57.4994 77.12ZM75.4291 77.12C75.4291 78.2133 75.1224 79.1867 74.5091 80.04C74.3757 80.1733 74.2424 80.3067 74.1091 80.44C74.0024 80.5733 73.8824 80.7067 73.7491 80.84C72.5491 81.88 70.9224 82.4 68.8691 82.4C67.4557 82.4 66.2291 82.1733 65.1891 81.72C65.0557 81.6667 64.9224 81.6267 64.7891 81.6C64.6824 81.6 64.5624 81.6 64.4291 81.6H64.0291C63.7357 81.7333 63.4557 81.84 63.1891 81.92C62.9224 82.0267 62.6424 82.1333 62.3491 82.24C61.9757 81.2267 61.5891 80.24 61.1891 79.28C60.7891 78.2933 60.4024 77.2933 60.0291 76.28C60.1357 76.2 60.2291 76.12 60.3091 76.04C60.4157 75.96 60.5357 75.8933 60.6691 75.84C61.8157 77.44 62.9091 78.6133 63.9491 79.36C65.6024 80.4267 67.2291 80.96 68.8291 80.96C70.0824 80.96 71.1357 80.5733 71.9891 79.8C72.6824 79.1067 73.0291 78.2667 73.0291 77.28C73.0291 76.64 72.7757 76.0667 72.2691 75.56C72.1624 75.48 72.0291 75.3867 71.8691 75.28C71.7091 75.1733 71.5224 75.0533 71.3091 74.92C70.9624 74.7067 70.5091 74.4933 69.9491 74.28C69.3891 74.04 68.7091 73.7867 67.9091 73.52C66.6557 73.0933 65.6157 72.7067 64.7891 72.36C63.9624 71.9867 63.3357 71.6267 62.9091 71.28C61.3091 70.2933 60.5091 68.9867 60.5091 67.36C60.5091 65.8667 61.2157 64.68 62.6291 63.8C63.6957 63.1333 65.0291 62.8 66.6291 62.8C68.0157 62.8 69.4424 63.0667 70.9091 63.6C71.1224 63.5467 71.3491 63.4533 71.5891 63.32C71.8291 63.16 72.0957 62.9733 72.3891 62.76C72.7624 63.72 73.1357 64.6933 73.5091 65.68C73.8824 66.64 74.2557 67.6133 74.6291 68.6C74.4957 68.6533 74.3624 68.72 74.2291 68.8C74.1224 68.88 74.0024 68.9467 73.8691 69C73.2024 67.72 72.3091 66.68 71.1891 65.88C69.5357 64.7867 68.0157 64.24 66.6291 64.24C65.6157 64.24 64.8157 64.4133 64.2291 64.76C63.3491 65.24 62.9091 66.0667 62.9091 67.24C62.9091 67.9867 63.2957 68.6267 64.0691 69.16C64.1757 69.2133 64.2824 69.2667 64.3891 69.32C64.4957 69.3733 64.6157 69.4267 64.7491 69.48C65.1224 69.6933 65.5891 69.92 66.1491 70.16C66.7091 70.4 67.3357 70.6267 68.0291 70.84C69.4691 71.2933 70.6557 71.7467 71.5891 72.2C72.5491 72.6267 73.2824 73.0267 73.7891 73.4C74.8824 74.28 75.4291 75.52 75.4291 77.12ZM81.0788 64.04C82.6788 63.2933 84.5188 62.92 86.5988 62.92C88.2788 62.92 89.6388 63.36 90.6788 64.24C91.7988 65.2533 92.3588 66.6667 92.3588 68.48V78.84C92.3588 78.9733 92.3588 79.1333 92.3588 79.32C92.3854 79.5067 92.4121 79.6933 92.4388 79.88C92.4921 80.0667 92.5588 80.2267 92.6388 80.36C92.7454 80.4933 92.8654 80.56 92.9988 80.56C93.3988 80.56 93.9721 80.2667 94.7188 79.68L95.1988 80.28C94.0254 81.6933 92.9854 82.4 92.0788 82.4C90.9054 82.4 90.1988 81.6533 89.9588 80.16C88.3054 81.6533 86.1988 82.4 83.6388 82.4C82.7588 82.4 81.9588 82.3067 81.2388 82.12C80.5454 81.9333 79.9588 81.64 79.4788 81.24C78.4921 80.4133 77.9988 79.2533 77.9988 77.76C77.9988 76.64 78.3721 75.64 79.1188 74.76C79.8921 73.8533 80.8788 73.1067 82.0788 72.52C84.1321 71.4533 86.7454 70.72 89.9188 70.32V67.84C89.9188 66.8 89.5988 65.96 88.9588 65.32C88.5854 64.9467 88.1454 64.68 87.6388 64.52C87.1588 64.36 86.6388 64.28 86.0788 64.28C85.0121 64.28 84.1054 64.4933 83.3588 64.92C82.9054 65.2133 82.5454 65.5067 82.2788 65.8C82.0121 66.0667 81.8788 66.3733 81.8788 66.72V66.92C81.8788 68.2267 81.3054 68.88 80.1588 68.88C79.1188 68.88 78.5988 68.28 78.5988 67.08C78.5988 65.8267 79.4254 64.8133 81.0788 64.04ZM89.9188 71.84C87.5721 72.08 85.3988 72.7467 83.3988 73.84C81.5854 74.8533 80.6788 76.1467 80.6788 77.72C80.6788 78.5733 81.0254 79.2667 81.7188 79.8C82.4121 80.3067 83.2788 80.56 84.3188 80.56C85.2788 80.56 86.2788 80.3733 87.3188 80C88.1721 79.7067 89.0388 79.2 89.9188 78.48V71.84ZM112.343 77.12C112.343 78.2133 112.036 79.1867 111.423 80.04C111.29 80.1733 111.156 80.3067 111.023 80.44C110.916 80.5733 110.796 80.7067 110.663 80.84C109.463 81.88 107.836 82.4 105.783 82.4C104.37 82.4 103.143 82.1733 102.103 81.72C101.97 81.6667 101.836 81.6267 101.703 81.6C101.596 81.6 101.476 81.6 101.343 81.6H100.943C100.65 81.7333 100.37 81.84 100.103 81.92C99.8365 82.0267 99.5565 82.1333 99.2631 82.24C98.8898 81.2267 98.5031 80.24 98.1031 79.28C97.7031 78.2933 97.3165 77.2933 96.9431 76.28C97.0498 76.2 97.1431 76.12 97.2231 76.04C97.3298 75.96 97.4498 75.8933 97.5831 75.84C98.7298 77.44 99.8231 78.6133 100.863 79.36C102.516 80.4267 104.143 80.96 105.743 80.96C106.996 80.96 108.05 80.5733 108.903 79.8C109.596 79.1067 109.943 78.2667 109.943 77.28C109.943 76.64 109.69 76.0667 109.183 75.56C109.076 75.48 108.943 75.3867 108.783 75.28C108.623 75.1733 108.436 75.0533 108.223 74.92C107.876 74.7067 107.423 74.4933 106.863 74.28C106.303 74.04 105.623 73.7867 104.823 73.52C103.57 73.0933 102.53 72.7067 101.703 72.36C100.876 71.9867 100.25 71.6267 99.8231 71.28C98.2231 70.2933 97.4231 68.9867 97.4231 67.36C97.4231 65.8667 98.1298 64.68 99.5431 63.8C100.61 63.1333 101.943 62.8 103.543 62.8C104.93 62.8 106.356 63.0667 107.823 63.6C108.036 63.5467 108.263 63.4533 108.503 63.32C108.743 63.16 109.01 62.9733 109.303 62.76C109.676 63.72 110.05 64.6933 110.423 65.68C110.796 66.64 111.17 67.6133 111.543 68.6C111.41 68.6533 111.276 68.72 111.143 68.8C111.036 68.88 110.916 68.9467 110.783 69C110.116 67.72 109.223 66.68 108.103 65.88C106.45 64.7867 104.93 64.24 103.543 64.24C102.53 64.24 101.73 64.4133 101.143 64.76C100.263 65.24 99.8231 66.0667 99.8231 67.24C99.8231 67.9867 100.21 68.6267 100.983 69.16C101.09 69.2133 101.196 69.2667 101.303 69.32C101.41 69.3733 101.53 69.4267 101.663 69.48C102.036 69.6933 102.503 69.92 103.063 70.16C103.623 70.4 104.25 70.6267 104.943 70.84C106.383 71.2933 107.57 71.7467 108.503 72.2C109.463 72.6267 110.196 73.0267 110.703 73.4C111.796 74.28 112.343 75.52 112.343 77.12ZM140.764 64.64C140.764 66.0267 140.15 66.72 138.924 66.72C138.417 66.72 137.857 66.4933 137.244 66.04C136.79 65.6667 136.297 65.48 135.764 65.48C135.07 65.48 134.204 65.88 133.164 66.68C132.337 67.32 131.537 68.0533 130.764 68.88V78.56C130.764 79.3067 130.897 79.8 131.164 80.04C131.457 80.3067 132.19 80.44 133.364 80.44V81.72H125.764V80.44C126.457 80.44 126.99 80.3867 127.364 80.28C127.737 80.1733 127.99 80.0133 128.124 79.8C128.257 79.5867 128.324 79.2533 128.324 78.8V67.12C128.324 66.5867 128.23 66.2267 128.044 66.04C127.937 65.9333 127.71 65.8133 127.364 65.68C126.99 65.6 126.537 65.56 126.004 65.56C125.95 65.4267 125.91 65.2933 125.884 65.16C125.857 65.0267 125.817 64.8933 125.764 64.76C126.617 64.4133 127.457 64.08 128.284 63.76C129.11 63.4133 129.937 63.0667 130.764 62.72V66.84C131.404 66.2267 132.044 65.6667 132.684 65.16C133.324 64.6533 133.95 64.2267 134.564 63.88C135.897 63.1067 137.19 62.72 138.444 62.72C139.99 62.72 140.764 63.36 140.764 64.64ZM159.245 76.92C159.379 77.0267 159.512 77.1333 159.645 77.24C159.805 77.3467 159.952 77.4533 160.085 77.56C159.445 78.52 158.739 79.32 157.965 79.96C157.192 80.6 156.365 81.1333 155.485 81.56C154.285 82.1467 152.992 82.44 151.605 82.44C148.965 82.44 146.805 81.6 145.125 79.92C143.339 78.1333 142.445 75.72 142.445 72.68C142.445 69.7467 143.299 67.3867 145.005 65.6C146.685 63.76 148.819 62.84 151.405 62.84C153.992 62.84 156.032 63.5867 157.525 65.08C159.125 66.6 159.925 68.8 159.925 71.68C157.445 71.76 155.005 71.8533 152.605 71.96C150.205 72.04 147.752 72.12 145.245 72.2C145.245 72.3067 145.232 72.4133 145.205 72.52C145.205 72.6 145.205 72.6933 145.205 72.8C145.205 73.92 145.352 74.9333 145.645 75.84C145.965 76.7467 146.419 77.56 147.005 78.28C148.232 79.88 149.952 80.68 152.165 80.68C153.339 80.68 154.565 80.3733 155.845 79.76C156.432 79.4133 157.005 79.0133 157.565 78.56C158.152 78.08 158.712 77.5333 159.245 76.92ZM145.325 70.68C147.325 70.6267 149.299 70.56 151.245 70.48C153.192 70.4 155.165 70.3333 157.165 70.28C157.139 68.52 156.592 67.1067 155.525 66.04C154.432 64.8667 153.059 64.28 151.405 64.28C149.805 64.28 148.405 64.92 147.205 66.2C146.085 67.3733 145.459 68.8667 145.325 70.68ZM181.134 81.52C180.04 81.52 179.134 81.56 178.414 81.64C178.2 81.6667 177.894 81.7067 177.494 81.76C177.12 81.8133 176.667 81.8667 176.134 81.92C176.107 81.7067 176.08 81.4933 176.054 81.28C176.054 81.0667 176.04 80.8533 176.014 80.64C174.76 81.8133 172.987 82.4 170.694 82.4C168.4 82.4 166.494 81.6 164.974 80C163.294 78.24 162.454 75.7867 162.454 72.64C162.454 69.7333 163.267 67.3467 164.894 65.48C166.44 63.6933 168.374 62.8 170.694 62.8C172.827 62.8 174.6 63.32 176.014 64.36V57.96C176.014 57.4 175.84 56.9867 175.494 56.72C175.147 56.4533 174.347 56.32 173.094 56.32C173.04 56.1867 173 56.04 172.974 55.88C172.974 55.72 172.947 55.5733 172.894 55.44C173.827 55.12 174.747 54.8 175.654 54.48C176.587 54.1333 177.52 53.7867 178.454 53.44V78.28C178.454 78.8933 178.6 79.32 178.894 79.56C179.374 80.1733 180.12 80.48 181.134 80.48V81.52ZM176.014 66.32C174.814 65.0667 173.334 64.44 171.574 64.44C170.427 64.44 169.4 64.7067 168.494 65.24C167.587 65.7733 166.854 66.5333 166.294 67.52C165.52 68.9333 165.134 70.6533 165.134 72.68C165.134 75.0533 165.747 76.9733 166.974 78.44C168.2 79.96 169.734 80.72 171.574 80.72C173.387 80.72 174.867 80.0667 176.014 78.76V66.32ZM199.402 76.92C199.535 77.0267 199.668 77.1333 199.802 77.24C199.962 77.3467 200.108 77.4533 200.242 77.56C199.602 78.52 198.895 79.32 198.122 79.96C197.348 80.6 196.522 81.1333 195.642 81.56C194.442 82.1467 193.148 82.44 191.762 82.44C189.122 82.44 186.962 81.6 185.282 79.92C183.495 78.1333 182.602 75.72 182.602 72.68C182.602 69.7467 183.455 67.3867 185.162 65.6C186.842 63.76 188.975 62.84 191.562 62.84C194.148 62.84 196.188 63.5867 197.682 65.08C199.282 66.6 200.082 68.8 200.082 71.68C197.602 71.76 195.162 71.8533 192.762 71.96C190.362 72.04 187.908 72.12 185.402 72.2C185.402 72.3067 185.388 72.4133 185.362 72.52C185.362 72.6 185.362 72.6933 185.362 72.8C185.362 73.92 185.508 74.9333 185.802 75.84C186.122 76.7467 186.575 77.56 187.162 78.28C188.388 79.88 190.108 80.68 192.322 80.68C193.495 80.68 194.722 80.3733 196.002 79.76C196.588 79.4133 197.162 79.0133 197.722 78.56C198.308 78.08 198.868 77.5333 199.402 76.92ZM185.482 70.68C187.482 70.6267 189.455 70.56 191.402 70.48C193.348 70.4 195.322 70.3333 197.322 70.28C197.295 68.52 196.748 67.1067 195.682 66.04C194.588 64.8667 193.215 64.28 191.562 64.28C189.962 64.28 188.562 64.92 187.362 66.2C186.242 67.3733 185.615 68.8667 185.482 70.68ZM217.89 77.12C217.89 78.2133 217.583 79.1867 216.97 80.04C216.837 80.1733 216.703 80.3067 216.57 80.44C216.463 80.5733 216.343 80.7067 216.21 80.84C215.01 81.88 213.383 82.4 211.33 82.4C209.917 82.4 208.69 82.1733 207.65 81.72C207.517 81.6667 207.383 81.6267 207.25 81.6C207.143 81.6 207.023 81.6 206.89 81.6H206.49C206.197 81.7333 205.917 81.84 205.65 81.92C205.383 82.0267 205.103 82.1333 204.81 82.24C204.437 81.2267 204.05 80.24 203.65 79.28C203.25 78.2933 202.863 77.2933 202.49 76.28C202.597 76.2 202.69 76.12 202.77 76.04C202.877 75.96 202.997 75.8933 203.13 75.84C204.277 77.44 205.37 78.6133 206.41 79.36C208.063 80.4267 209.69 80.96 211.29 80.96C212.543 80.96 213.597 80.5733 214.45 79.8C215.143 79.1067 215.49 78.2667 215.49 77.28C215.49 76.64 215.237 76.0667 214.73 75.56C214.623 75.48 214.49 75.3867 214.33 75.28C214.17 75.1733 213.983 75.0533 213.77 74.92C213.423 74.7067 212.97 74.4933 212.41 74.28C211.85 74.04 211.17 73.7867 210.37 73.52C209.117 73.0933 208.077 72.7067 207.25 72.36C206.423 71.9867 205.797 71.6267 205.37 71.28C203.77 70.2933 202.97 68.9867 202.97 67.36C202.97 65.8667 203.677 64.68 205.09 63.8C206.157 63.1333 207.49 62.8 209.09 62.8C210.477 62.8 211.903 63.0667 213.37 63.6C213.583 63.5467 213.81 63.4533 214.05 63.32C214.29 63.16 214.557 62.9733 214.85 62.76C215.223 63.72 215.597 64.6933 215.97 65.68C216.343 66.64 216.717 67.6133 217.09 68.6C216.957 68.6533 216.823 68.72 216.69 68.8C216.583 68.88 216.463 68.9467 216.33 69C215.663 67.72 214.77 66.68 213.65 65.88C211.997 64.7867 210.477 64.24 209.09 64.24C208.077 64.24 207.277 64.4133 206.69 64.76C205.81 65.24 205.37 66.0667 205.37 67.24C205.37 67.9867 205.757 68.6267 206.53 69.16C206.637 69.2133 206.743 69.2667 206.85 69.32C206.957 69.3733 207.077 69.4267 207.21 69.48C207.583 69.6933 208.05 69.92 208.61 70.16C209.17 70.4 209.797 70.6267 210.49 70.84C211.93 71.2933 213.117 71.7467 214.05 72.2C215.01 72.6267 215.743 73.0267 216.25 73.4C217.343 74.28 217.89 75.52 217.89 77.12ZM247.031 77.12C247.031 78.2133 246.724 79.1867 246.111 80.04C245.977 80.1733 245.844 80.3067 245.711 80.44C245.604 80.5733 245.484 80.7067 245.351 80.84C244.151 81.88 242.524 82.4 240.471 82.4C239.057 82.4 237.831 82.1733 236.791 81.72C236.657 81.6667 236.524 81.6267 236.391 81.6C236.284 81.6 236.164 81.6 236.031 81.6H235.631C235.337 81.7333 235.057 81.84 234.791 81.92C234.524 82.0267 234.244 82.1333 233.951 82.24C233.577 81.2267 233.191 80.24 232.791 79.28C232.391 78.2933 232.004 77.2933 231.631 76.28C231.737 76.2 231.831 76.12 231.911 76.04C232.017 75.96 232.137 75.8933 232.271 75.84C233.417 77.44 234.511 78.6133 235.551 79.36C237.204 80.4267 238.831 80.96 240.431 80.96C241.684 80.96 242.737 80.5733 243.591 79.8C244.284 79.1067 244.631 78.2667 244.631 77.28C244.631 76.64 244.377 76.0667 243.871 75.56C243.764 75.48 243.631 75.3867 243.471 75.28C243.311 75.1733 243.124 75.0533 242.911 74.92C242.564 74.7067 242.111 74.4933 241.551 74.28C240.991 74.04 240.311 73.7867 239.511 73.52C238.257 73.0933 237.217 72.7067 236.391 72.36C235.564 71.9867 234.937 71.6267 234.511 71.28C232.911 70.2933 232.111 68.9867 232.111 67.36C232.111 65.8667 232.817 64.68 234.231 63.8C235.297 63.1333 236.631 62.8 238.231 62.8C239.617 62.8 241.044 63.0667 242.511 63.6C242.724 63.5467 242.951 63.4533 243.191 63.32C243.431 63.16 243.697 62.9733 243.991 62.76C244.364 63.72 244.737 64.6933 245.111 65.68C245.484 66.64 245.857 67.6133 246.231 68.6C246.097 68.6533 245.964 68.72 245.831 68.8C245.724 68.88 245.604 68.9467 245.471 69C244.804 67.72 243.911 66.68 242.791 65.88C241.137 64.7867 239.617 64.24 238.231 64.24C237.217 64.24 236.417 64.4133 235.831 64.76C234.951 65.24 234.511 66.0667 234.511 67.24C234.511 67.9867 234.897 68.6267 235.671 69.16C235.777 69.2133 235.884 69.2667 235.991 69.32C236.097 69.3733 236.217 69.4267 236.351 69.48C236.724 69.6933 237.191 69.92 237.751 70.16C238.311 70.4 238.937 70.6267 239.631 70.84C241.071 71.2933 242.257 71.7467 243.191 72.2C244.151 72.6267 244.884 73.0267 245.391 73.4C246.484 74.28 247.031 75.52 247.031 77.12ZM267.04 72.64C267.04 75.6267 266.187 78.0133 264.48 79.8C262.854 81.5867 260.774 82.48 258.24 82.48C255.68 82.48 253.587 81.5867 251.96 79.8C250.254 78.0133 249.4 75.6267 249.4 72.64C249.4 69.6533 250.254 67.2667 251.96 65.48C253.587 63.6933 255.68 62.8 258.24 62.8C260.774 62.8 262.854 63.6933 264.48 65.48C266.187 67.2667 267.04 69.6533 267.04 72.64ZM264.32 72.64C264.32 70.1867 263.734 68.1733 262.56 66.6C261.467 65.0267 260.027 64.24 258.24 64.24C256.48 64.24 255.014 65.0267 253.84 66.6C252.694 68.1733 252.12 70.1867 252.12 72.64C252.12 75.0667 252.68 77.08 253.8 78.68C254.947 80.2267 256.427 81 258.24 81C259.974 81 261.414 80.2267 262.56 78.68C263.734 77.1067 264.32 75.0933 264.32 72.64ZM285.085 76.92C285.218 77.0267 285.352 77.12 285.485 77.2C285.618 77.28 285.752 77.3733 285.885 77.48C283.938 80.7867 281.325 82.44 278.045 82.44C275.698 82.44 273.698 81.6133 272.045 79.96C270.392 78.1467 269.565 75.8667 269.565 73.12C269.565 70.2667 270.472 67.8133 272.285 65.76C274.045 63.84 276.245 62.88 278.885 62.88C280.458 62.88 281.832 63.1867 283.005 63.8C283.432 64.0133 283.818 64.2667 284.165 64.56C284.538 64.8533 284.845 65.2 285.085 65.6C285.352 66.0533 285.485 66.5067 285.485 66.96C285.485 67.44 285.352 67.8933 285.085 68.32C284.818 68.7467 284.418 68.96 283.885 68.96C282.925 68.96 282.285 68.2133 281.965 66.72C281.885 66.32 281.725 65.9867 281.485 65.72C281.245 65.4533 280.952 65.2133 280.605 65C279.912 64.5733 279.058 64.36 278.045 64.36C276.525 64.36 275.178 65.1467 274.005 66.72C272.832 68.3733 272.245 70.32 272.245 72.56C272.245 73.76 272.392 74.8533 272.685 75.84C273.005 76.8267 273.472 77.68 274.085 78.4C275.338 79.8933 276.898 80.64 278.765 80.64C281.058 80.64 283.165 79.4 285.085 76.92ZM294.31 55.28C294.31 55.92 294.097 56.4533 293.67 56.88C293.244 57.3067 292.71 57.52 292.07 57.52C291.484 57.52 290.99 57.3067 290.59 56.88C290.217 56.4533 290.03 55.92 290.03 55.28C290.03 54.64 290.23 54.1067 290.63 53.68C291.03 53.2533 291.51 53.04 292.07 53.04C292.71 53.04 293.244 53.2533 293.67 53.68C294.097 54.1067 294.31 54.64 294.31 55.28ZM296.19 81.76H288.71V80.44C289.804 80.44 290.51 80.28 290.83 79.96C291.097 79.72 291.23 79.28 291.23 78.64V67.12C291.23 66.5333 291.11 66.1333 290.87 65.92C290.577 65.68 289.87 65.56 288.75 65.56L288.59 64.68L293.67 62.76V78.64C293.67 79.3867 293.79 79.8533 294.03 80.04C294.377 80.3067 295.097 80.44 296.19 80.44V81.76ZM301.508 64.04C303.108 63.2933 304.948 62.92 307.028 62.92C308.708 62.92 310.068 63.36 311.108 64.24C312.228 65.2533 312.788 66.6667 312.788 68.48V78.84C312.788 78.9733 312.788 79.1333 312.788 79.32C312.815 79.5067 312.842 79.6933 312.868 79.88C312.922 80.0667 312.988 80.2267 313.068 80.36C313.175 80.4933 313.295 80.56 313.428 80.56C313.828 80.56 314.402 80.2667 315.148 79.68L315.628 80.28C314.455 81.6933 313.415 82.4 312.508 82.4C311.335 82.4 310.628 81.6533 310.388 80.16C308.735 81.6533 306.628 82.4 304.068 82.4C303.188 82.4 302.388 82.3067 301.668 82.12C300.975 81.9333 300.388 81.64 299.908 81.24C298.922 80.4133 298.428 79.2533 298.428 77.76C298.428 76.64 298.802 75.64 299.548 74.76C300.322 73.8533 301.308 73.1067 302.508 72.52C304.562 71.4533 307.175 70.72 310.348 70.32V67.84C310.348 66.8 310.028 65.96 309.388 65.32C309.015 64.9467 308.575 64.68 308.068 64.52C307.588 64.36 307.068 64.28 306.508 64.28C305.442 64.28 304.535 64.4933 303.788 64.92C303.335 65.2133 302.975 65.5067 302.708 65.8C302.442 66.0667 302.308 66.3733 302.308 66.72V66.92C302.308 68.2267 301.735 68.88 300.588 68.88C299.548 68.88 299.028 68.28 299.028 67.08C299.028 65.8267 299.855 64.8133 301.508 64.04ZM310.348 71.84C308.002 72.08 305.828 72.7467 303.828 73.84C302.015 74.8533 301.108 76.1467 301.108 77.72C301.108 78.5733 301.455 79.2667 302.148 79.8C302.842 80.3067 303.708 80.56 304.748 80.56C305.708 80.56 306.708 80.3733 307.748 80C308.602 79.7067 309.468 79.2 310.348 78.48V71.84ZM323.373 55.28C323.373 55.92 323.159 56.4533 322.733 56.88C322.306 57.3067 321.773 57.52 321.133 57.52C320.546 57.52 320.053 57.3067 319.653 56.88C319.279 56.4533 319.093 55.92 319.093 55.28C319.093 54.64 319.293 54.1067 319.693 53.68C320.093 53.2533 320.573 53.04 321.133 53.04C321.773 53.04 322.306 53.2533 322.733 53.68C323.159 54.1067 323.373 54.64 323.373 55.28ZM325.253 81.76H317.773V80.44C318.866 80.44 319.573 80.28 319.893 79.96C320.159 79.72 320.293 79.28 320.293 78.64V67.12C320.293 66.5333 320.173 66.1333 319.933 65.92C319.639 65.68 318.933 65.56 317.813 65.56L317.653 64.68L322.733 62.76V78.64C322.733 79.3867 322.853 79.8533 323.093 80.04C323.439 80.3067 324.159 80.44 325.253 80.44V81.76ZM342.851 77.12C342.851 78.2133 342.544 79.1867 341.931 80.04C341.798 80.1733 341.664 80.3067 341.531 80.44C341.424 80.5733 341.304 80.7067 341.171 80.84C339.971 81.88 338.344 82.4 336.291 82.4C334.878 82.4 333.651 82.1733 332.611 81.72C332.478 81.6667 332.344 81.6267 332.211 81.6C332.104 81.6 331.984 81.6 331.851 81.6H331.451C331.158 81.7333 330.878 81.84 330.611 81.92C330.344 82.0267 330.064 82.1333 329.771 82.24C329.398 81.2267 329.011 80.24 328.611 79.28C328.211 78.2933 327.824 77.2933 327.451 76.28C327.558 76.2 327.651 76.12 327.731 76.04C327.838 75.96 327.958 75.8933 328.091 75.84C329.238 77.44 330.331 78.6133 331.371 79.36C333.024 80.4267 334.651 80.96 336.251 80.96C337.504 80.96 338.558 80.5733 339.411 79.8C340.104 79.1067 340.451 78.2667 340.451 77.28C340.451 76.64 340.198 76.0667 339.691 75.56C339.584 75.48 339.451 75.3867 339.291 75.28C339.131 75.1733 338.944 75.0533 338.731 74.92C338.384 74.7067 337.931 74.4933 337.371 74.28C336.811 74.04 336.131 73.7867 335.331 73.52C334.078 73.0933 333.038 72.7067 332.211 72.36C331.384 71.9867 330.758 71.6267 330.331 71.28C328.731 70.2933 327.931 68.9867 327.931 67.36C327.931 65.8667 328.638 64.68 330.051 63.8C331.118 63.1333 332.451 62.8 334.051 62.8C335.438 62.8 336.864 63.0667 338.331 63.6C338.544 63.5467 338.771 63.4533 339.011 63.32C339.251 63.16 339.518 62.9733 339.811 62.76C340.184 63.72 340.558 64.6933 340.931 65.68C341.304 66.64 341.678 67.6133 342.051 68.6C341.918 68.6533 341.784 68.72 341.651 68.8C341.544 68.88 341.424 68.9467 341.291 69C340.624 67.72 339.731 66.68 338.611 65.88C336.958 64.7867 335.438 64.24 334.051 64.24C333.038 64.24 332.238 64.4133 331.651 64.76C330.771 65.24 330.331 66.0667 330.331 67.24C330.331 67.9867 330.718 68.6267 331.491 69.16C331.598 69.2133 331.704 69.2667 331.811 69.32C331.918 69.3733 332.038 69.4267 332.171 69.48C332.544 69.6933 333.011 69.92 333.571 70.16C334.131 70.4 334.758 70.6267 335.451 70.84C336.891 71.2933 338.078 71.7467 339.011 72.2C339.971 72.6267 340.704 73.0267 341.211 73.4C342.304 74.28 342.851 75.52 342.851 77.12Z" fill="#30343F"/>
<defs>
<clipPath id="clip0_28_85">
<rect width="92" height="98" fill="white" transform="translate(407)"/>
</clipPath>
</defs>
</svg>
